<svg id="Capa_1" data-name="Capa 1" xmlns="http://www.w3.org/2000/svg" viewBox="0 0 24 20"><defs><style>.cls-1{fill:#ee6723;}</style></defs><title>arrow-transaction-sender-orange</title><path class="cls-1" d="M23.93,5.57l-4,10.77a1.17,1.17,0,0,1-2.16.08l-1.46-3.17L8.4,16.83h0L1.66,19.89a1.16,1.16,0,1,1-1-2.11l4.68-2.12h0l11-5a1.18,1.18,0,0,1,1.56.57l.77,1.68,2.64-7.06L14.2,3.22,15,4.9a1.16,1.16,0,0,1-.58,1.54L5.89,10.31a1.18,1.18,0,0,1-1.56-.57A1.16,1.16,0,0,1,4.91,8.2l7.45-3.39L10.9,1.65a1.19,1.19,0,0,1,0-.89A1.19,1.19,0,0,1,12.37.07l10.87,4A1.17,1.17,0,0,1,23.93,5.57Z"/></svg>