<svg id="Capa_1" data-name="Capa 1" xmlns="http://www.w3.org/2000/svg" viewBox="0 0 24 20"><defs><style>.cls-1{fill:#1bb2a9;}</style></defs><title>arrow-transaction-recipient-green</title><path class="cls-1" d="M.07,14.43l4-10.77a1.17,1.17,0,0,1,2.16-.08L7.73,6.75,15.6,3.17h0L22.34.11a1.16,1.16,0,1,1,1,2.11L18.64,4.34h0l-11,5a1.18,1.18,0,0,1-1.56-.57L5.32,7.09,2.68,14.15,9.8,16.78,9,15.1a1.16,1.16,0,0,1,.58-1.54l8.51-3.87a1.18,1.18,0,0,1,1.56.57,1.16,1.16,0,0,1-.58,1.54l-7.45,3.39,1.46,3.16a1.16,1.16,0,0,1-1.47,1.58l-10.87-4A1.17,1.17,0,0,1,.07,14.43Z"/></svg>