<svg id="Layer_1" data-name="Layer 1" xmlns="http://www.w3.org/2000/svg" viewBox="0 0 24 24"><defs><style>.cls-1{fill:#2aa0b8;}</style></defs><title>search-details-green-proximax-sirius-explorer</title><path class="cls-1" d="M23.34,20.16l-5.51-5.51a10.49,10.49,0,0,1-3.18,3.18l5.51,5.51a2.25,2.25,0,0,0,3.18-3.18Z"/><path class="cls-1" d="M18,9a9,9,0,1,0-9,9A9,9,0,0,0,18,9ZM9,15.75A6.75,6.75,0,1,1,15.75,9,6.76,6.76,0,0,1,9,15.75Z"/><path class="cls-1" d="M3.75,9h1.5A3.75,3.75,0,0,1,9,5.25V3.75A5.26,5.26,0,0,0,3.75,9Z"/></svg>