<svg id="Layer_1" data-name="Layer 1" xmlns="http://www.w3.org/2000/svg" viewBox="0 0 100 20"><defs><style>.cls-1{fill:#fff;}</style></defs><title>icon-proximax-nodes</title><path class="cls-1" d="M7.24,0A7.24,7.24,0,0,0,0,7.24c0,4.95,6.48,12.22,6.75,12.54a.66.66,0,0,0,.92.06l0-.06c.28-.32,6.76-7.59,6.76-12.54A7.24,7.24,0,0,0,7.24,0Zm0,3.71a8.78,8.78,0,0,1,3.7.84,5.17,5.17,0,0,0-2.47.15A1.22,1.22,0,0,1,8,4.79c-.19,0-.46-.35-.59-.48a3.62,3.62,0,0,0-.77-.58ZM3.31,4.79V4.66l.12-.07a8.81,8.81,0,0,1,2.41-.77L6,4l.22.29c.09.11.17.23.25.35a5.26,5.26,0,0,1,.38.65.23.23,0,0,1,0,.16.25.25,0,0,1-.08.12l-.2.15c-.32.23-.62.47-.93.7a13.57,13.57,0,0,0-1,.92c-.21.21-.46.46-.7.73A7.94,7.94,0,0,1,3.31,4.79Zm4,6.89-.11.07-.11-.07a7.87,7.87,0,0,1-3-3.23,14.44,14.44,0,0,1,1.3-.91,16.21,16.21,0,0,1,1.48-.8,1.55,1.55,0,0,1,.52-.19.22.22,0,0,1,.16,0c.17.08.43.52.43.52s.09.14.15.21.1.16.15.24l.21.35c.11.19.24.39.34.59s.4.79.61,1.29A7.93,7.93,0,0,1,7.34,11.68ZM9.86,9.25C9.76,8.82,9.63,8.4,9.5,8c-.07-.22-.14-.43-.22-.64s-.15-.41-.23-.61c-.37-.88-.34-.88.35-1.27a4,4,0,0,1,1.7-.54h.06A8,8,0,0,1,9.86,9.25Z"/><path class="cls-1" d="M18.77,10.74v2.77H17.3V5.64h2.57a4.64,4.64,0,0,1,1.37.18,2.63,2.63,0,0,1,1,.52,2.06,2.06,0,0,1,.55.79,2.8,2.8,0,0,1,.18,1,2.76,2.76,0,0,1-.19,1,2,2,0,0,1-.57.81,2.66,2.66,0,0,1-.95.54,4.17,4.17,0,0,1-1.34.19Zm0-1.15h1.1a2.11,2.11,0,0,0,.7-.1,1.28,1.28,0,0,0,.5-.28,1.16,1.16,0,0,0,.29-.46,1.64,1.64,0,0,0,.1-.6,1.48,1.48,0,0,0-.1-.57,1,1,0,0,0-.29-.44,1.42,1.42,0,0,0-.5-.28,2.43,2.43,0,0,0-.7-.09h-1.1Z"/><path class="cls-1" d="M24,13.51V7.92h.79a.41.41,0,0,1,.28.08.37.37,0,0,1,.11.26l.08.68A2.75,2.75,0,0,1,26,8.12a1.48,1.48,0,0,1,.9-.3,1.15,1.15,0,0,1,.69.19l-.18,1a.21.21,0,0,1-.07.14.26.26,0,0,1-.14,0,1.39,1.39,0,0,1-.23,0,1.26,1.26,0,0,0-.37,0,1.17,1.17,0,0,0-.72.23,1.84,1.84,0,0,0-.51.68v3.48Z"/><path class="cls-1" d="M30.82,7.84A3,3,0,0,1,32,8a2.44,2.44,0,0,1,.87.57,2.72,2.72,0,0,1,.55.9,3.51,3.51,0,0,1,.2,1.2,3.41,3.41,0,0,1-.2,1.19,2.67,2.67,0,0,1-.55.91,2.46,2.46,0,0,1-.87.58,3.35,3.35,0,0,1-2.28,0,2.38,2.38,0,0,1-.87-.58,2.54,2.54,0,0,1-.56-.91,3.41,3.41,0,0,1-.2-1.19,3.51,3.51,0,0,1,.2-1.2,2.59,2.59,0,0,1,.56-.9A2.35,2.35,0,0,1,29.68,8,3,3,0,0,1,30.82,7.84Zm0,4.72a1.18,1.18,0,0,0,1-.47,2.29,2.29,0,0,0,.34-1.37,2.32,2.32,0,0,0-.34-1.38,1.15,1.15,0,0,0-1-.47,1.17,1.17,0,0,0-1,.47,2.34,2.34,0,0,0-.34,1.38,2.31,2.31,0,0,0,.34,1.37A1.19,1.19,0,0,0,30.82,12.56Z"/><path class="cls-1" d="M35.62,10.63,33.79,7.92h1.29a.54.54,0,0,1,.22,0,.44.44,0,0,1,.13.14L36.6,10a1.07,1.07,0,0,1,.07-.19,1.18,1.18,0,0,1,.1-.19l.94-1.47A.51.51,0,0,1,37.85,8a.29.29,0,0,1,.17,0h1.24l-1.84,2.65,1.91,2.94H38a.32.32,0,0,1-.24-.08.61.61,0,0,1-.15-.17l-1.19-1.94a1.06,1.06,0,0,1-.13.32l-1,1.62a.8.8,0,0,1-.15.17.3.3,0,0,1-.21.08H33.71Z"/><path class="cls-1" d="M41.82,6.29a.88.88,0,0,1-.07.33,1.31,1.31,0,0,1-.19.27.9.9,0,0,1-.28.18.77.77,0,0,1-.34.07.78.78,0,0,1-.33-.07,1,1,0,0,1-.27-.18,1.27,1.27,0,0,1-.18-.27.81.81,0,0,1,0-.66,1.12,1.12,0,0,1,.18-.28,1.27,1.27,0,0,1,.27-.18,1,1,0,0,1,.33-.07.94.94,0,0,1,.34.07,1.12,1.12,0,0,1,.28.18,1.15,1.15,0,0,1,.19.28A.88.88,0,0,1,41.82,6.29Zm-.21,1.63v5.59H40.27V7.92Z"/><path class="cls-1" d="M43.13,13.51V7.92H44a.32.32,0,0,1,.34.25l.09.41a2.83,2.83,0,0,1,.3-.3A1.92,1.92,0,0,1,45,8.05a1.68,1.68,0,0,1,.39-.16,2.16,2.16,0,0,1,.46,0,1.32,1.32,0,0,1,.87.28,1.79,1.79,0,0,1,.51.76,1.56,1.56,0,0,1,.32-.47A1.9,1.9,0,0,1,48,8.08a2.3,2.3,0,0,1,.5-.18,2.46,2.46,0,0,1,.53-.06,2.16,2.16,0,0,1,.83.14,1.5,1.5,0,0,1,.6.41,1.74,1.74,0,0,1,.37.67A2.73,2.73,0,0,1,51,10v3.56H49.64V10a1.18,1.18,0,0,0-.24-.8.84.84,0,0,0-.68-.27,1.23,1.23,0,0,0-.39.07,1,1,0,0,0-.31.21.93.93,0,0,0-.21.33,1.35,1.35,0,0,0-.07.46v3.56H46.38V10a1.21,1.21,0,0,0-.22-.81.84.84,0,0,0-.67-.26A1,1,0,0,0,45,9a1.55,1.55,0,0,0-.47.39v4.09Z"/><path class="cls-1" d="M56.68,13.51h-.6a.61.61,0,0,1-.3-.06.32.32,0,0,1-.16-.23l-.12-.4c-.15.13-.28.24-.42.34a2.25,2.25,0,0,1-.42.24,1.84,1.84,0,0,1-.47.15,2.92,2.92,0,0,1-.54,0,1.93,1.93,0,0,1-.65-.1,1.44,1.44,0,0,1-.52-.28,1.37,1.37,0,0,1-.33-.48,1.69,1.69,0,0,1-.12-.66,1.34,1.34,0,0,1,.16-.63,1.55,1.55,0,0,1,.56-.55,3.33,3.33,0,0,1,1-.42,6.49,6.49,0,0,1,1.59-.16V10a1.24,1.24,0,0,0-.24-.84.84.84,0,0,0-.68-.27A1.73,1.73,0,0,0,53.9,9a2.27,2.27,0,0,0-.38.17l-.29.17a.67.67,0,0,1-.3.08.45.45,0,0,1-.24-.07.69.69,0,0,1-.16-.18l-.24-.43a3.31,3.31,0,0,1,2.32-.88,2.23,2.23,0,0,1,.88.16,2,2,0,0,1,.65.45,1.86,1.86,0,0,1,.4.68,2.48,2.48,0,0,1,.14.87Zm-2.61-.84a1.53,1.53,0,0,0,.38,0,1.17,1.17,0,0,0,.33-.11,2.38,2.38,0,0,0,.3-.18,3.4,3.4,0,0,0,.29-.26v-.94a5.3,5.3,0,0,0-1,.08,2.46,2.46,0,0,0-.64.19.79.79,0,0,0-.34.26.7.7,0,0,0-.1.34.58.58,0,0,0,.21.51A.92.92,0,0,0,54.07,12.67Z"/><path class="cls-1" d="M60,9.46,57.46,5.64h1.46a.41.41,0,0,1,.22,0,.26.26,0,0,1,.12.13l1.8,2.89a.53.53,0,0,1,.06-.14s0-.09.07-.14l1.64-2.58a.34.34,0,0,1,.31-.2h1.41L62,9.4l2.61,4.11H63.15a.3.3,0,0,1-.23-.08.61.61,0,0,1-.15-.17l-1.83-3a.5.5,0,0,1,0,.13s0,.07,0,.1l-1.75,2.79a.8.8,0,0,1-.15.17.33.33,0,0,1-.22.08H57.35Z"/><path class="cls-1" d="M68.51,5.64l.12,0a.3.3,0,0,1,.1.07l.11.12L73,11.14l0-.38c0-.12,0-.23,0-.34V5.64h1.29v7.87h-.75a.76.76,0,0,1-.29,0,.82.82,0,0,1-.23-.2L68.84,8c0,.11,0,.23,0,.34s0,.22,0,.31v4.84H67.58V5.64h.93Z"/><path class="cls-1" d="M78.12,7.84a3,3,0,0,1,1.14.2,2.35,2.35,0,0,1,.87.57,2.57,2.57,0,0,1,.55.9,3.51,3.51,0,0,1,.2,1.2,3.41,3.41,0,0,1-.2,1.19,2.52,2.52,0,0,1-.55.91,2.38,2.38,0,0,1-.87.58,3,3,0,0,1-1.14.2,3,3,0,0,1-1.14-.2,2.38,2.38,0,0,1-.87-.58,2.54,2.54,0,0,1-.56-.91,3.41,3.41,0,0,1-.2-1.19,3.51,3.51,0,0,1,.2-1.2,2.59,2.59,0,0,1,.56-.9A2.35,2.35,0,0,1,77,8,3,3,0,0,1,78.12,7.84Zm0,4.72a1.18,1.18,0,0,0,1-.47,2.29,2.29,0,0,0,.34-1.37,2.32,2.32,0,0,0-.34-1.38,1.15,1.15,0,0,0-1-.47,1.17,1.17,0,0,0-1,.47,2.34,2.34,0,0,0-.34,1.38,2.31,2.31,0,0,0,.34,1.37A1.19,1.19,0,0,0,78.12,12.56Z"/><path class="cls-1" d="M85.86,13.51a.33.33,0,0,1-.34-.24l-.11-.54a3,3,0,0,1-.37.35,1.62,1.62,0,0,1-.41.27,1.76,1.76,0,0,1-.47.18,2.38,2.38,0,0,1-.55.06,1.85,1.85,0,0,1-.84-.19,1.89,1.89,0,0,1-.65-.55,2.51,2.51,0,0,1-.43-.9,4.48,4.48,0,0,1-.15-1.22,3.85,3.85,0,0,1,.17-1.15,2.75,2.75,0,0,1,.49-.93A2.32,2.32,0,0,1,83,8a2.18,2.18,0,0,1,1-.22,1.88,1.88,0,0,1,1.4.55V5.42h1.34v8.09Zm-1.79-1a1.31,1.31,0,0,0,.71-.18,2.12,2.12,0,0,0,.56-.49V9.35a1.29,1.29,0,0,0-.5-.39,1.4,1.4,0,0,0-.58-.12,1.23,1.23,0,0,0-.55.12,1,1,0,0,0-.42.34,1.79,1.79,0,0,0-.27.59,3.49,3.49,0,0,0-.09.84,3.82,3.82,0,0,0,.08.83,1.52,1.52,0,0,0,.23.56.82.82,0,0,0,.36.31A1.2,1.2,0,0,0,84.07,12.53Z"/><path class="cls-1" d="M90.45,7.84a2.78,2.78,0,0,1,1,.16,2.19,2.19,0,0,1,.76.5,2.16,2.16,0,0,1,.51.79,3.3,3.3,0,0,1,.18,1.08,1.69,1.69,0,0,1,0,.25.34.34,0,0,1,0,.16.18.18,0,0,1-.09.08.35.35,0,0,1-.16,0H89.1a2,2,0,0,0,.46,1.26,1.45,1.45,0,0,0,1.07.4,1.93,1.93,0,0,0,.57-.07c.15-.06.29-.11.41-.17l.31-.17a.52.52,0,0,1,.26-.08.32.32,0,0,1,.14,0,.47.47,0,0,1,.1.1l.4.49a2.38,2.38,0,0,1-.51.44,2.83,2.83,0,0,1-.58.28,3.2,3.2,0,0,1-.61.15,4.26,4.26,0,0,1-.61,0,2.92,2.92,0,0,1-1.08-.19,2.35,2.35,0,0,1-.87-.57,2.79,2.79,0,0,1-.59-.94,3.63,3.63,0,0,1-.21-1.29A3,3,0,0,1,88,9.52a2.62,2.62,0,0,1,.53-.88,2.7,2.7,0,0,1,.84-.59A2.88,2.88,0,0,1,90.45,7.84Zm0,1a1.26,1.26,0,0,0-.92.33,1.64,1.64,0,0,0-.42.94h2.53a1.62,1.62,0,0,0-.08-.49,1.09,1.09,0,0,0-.21-.4A1,1,0,0,0,91,8.9,1.25,1.25,0,0,0,90.47,8.8Z"/><path class="cls-1" d="M97.28,9a.34.34,0,0,1-.12.12.24.24,0,0,1-.15,0,.54.54,0,0,1-.21-.05L96.54,9l-.33-.12a1.55,1.55,0,0,0-.45,0,1,1,0,0,0-.62.17.5.5,0,0,0-.23.44.44.44,0,0,0,.11.3,1.2,1.2,0,0,0,.31.21,2.52,2.52,0,0,0,.44.17l.5.16a4.34,4.34,0,0,1,.5.2,1.65,1.65,0,0,1,.44.28,1.24,1.24,0,0,1,.31.41,1.31,1.31,0,0,1,.12.58,1.78,1.78,0,0,1-.15.74,1.48,1.48,0,0,1-.43.59,1.9,1.9,0,0,1-.7.39,3,3,0,0,1-1,.14,3.55,3.55,0,0,1-.57,0,4,4,0,0,1-.52-.15,2.26,2.26,0,0,1-.47-.22,1.84,1.84,0,0,1-.38-.27l.31-.51a.47.47,0,0,1,.14-.14.43.43,0,0,1,.21,0,.44.44,0,0,1,.24.07l.25.15a1.6,1.6,0,0,0,.35.15,1.41,1.41,0,0,0,.5.08,1.22,1.22,0,0,0,.41-.06,1,1,0,0,0,.29-.15.5.5,0,0,0,.16-.22.53.53,0,0,0,0-.25.48.48,0,0,0-.11-.32,1.23,1.23,0,0,0-.31-.22,2.36,2.36,0,0,0-.45-.16l-.5-.17a3.17,3.17,0,0,1-.51-.2,1.9,1.9,0,0,1-.44-.3,1.29,1.29,0,0,1-.31-.44,1.48,1.48,0,0,1-.12-.63,1.58,1.58,0,0,1,.14-.65,1.41,1.41,0,0,1,.4-.54A1.91,1.91,0,0,1,94.83,8a3.11,3.11,0,0,1,2,.06,2.18,2.18,0,0,1,.79.5Z"/></svg>