<svg id="Layer_1" data-name="Layer 1" xmlns="http://www.w3.org/2000/svg" viewBox="0 0 24 24"><defs><style>.cls-1{fill:#2aa0b8;}</style></defs><title>details-info-green</title><path class="cls-1" d="M12,0A12,12,0,1,0,24,12,12,12,0,0,0,12,0Zm0,22A10,10,0,1,1,22,12,10,10,0,0,1,12,22ZM11.12,7.59a1.51,1.51,0,0,1-.43-1.14,1.67,1.67,0,0,1,.44-1.1,1.86,1.86,0,0,1,.62-.44,2.28,2.28,0,0,1,1-.18,2.49,2.49,0,0,1,.68.08,1.59,1.59,0,0,1,.56.25,1.27,1.27,0,0,1,.38.45,1.53,1.53,0,0,1,.14.66,2.2,2.2,0,0,1-.11.68,1.59,1.59,0,0,1-.37.59,1.62,1.62,0,0,1-.62.42,2.25,2.25,0,0,1-.91.16A1.83,1.83,0,0,1,11.12,7.59Zm3.4,8.06c.3-.26.56-.49.79-.67v2.09a9.19,9.19,0,0,1-.93.73,8.7,8.7,0,0,1-1.19.71,9.32,9.32,0,0,1-1.31.55,4.15,4.15,0,0,1-1.26.21,2.44,2.44,0,0,1-.91-.15,1.6,1.6,0,0,1-.59-.41,1.71,1.71,0,0,1-.33-.66,3.74,3.74,0,0,1-.1-.85,9,9,0,0,1,.15-1.52c.1-.57.23-1.17.37-1.78s.3-1.24.46-1.85.3-1.18.43-1.69a.87.87,0,0,1,.29-.46,1.77,1.77,0,0,1,.49-.31,2.7,2.7,0,0,1,.57-.18A2.61,2.61,0,0,1,12,9.35a.81.81,0,0,1,.59.17.57.57,0,0,1,.15.42,2.92,2.92,0,0,1-.1.66c-.07.29-.16.61-.26,1L12,12.74c-.12.42-.23.83-.33,1.25s-.19.82-.26,1.22a6.09,6.09,0,0,0-.1,1.07,2.17,2.17,0,0,0,.1.74.41.41,0,0,0,.43.27,1.73,1.73,0,0,0,.82-.26,7.07,7.07,0,0,0,.92-.62Z"/></svg>