<svg id="Capa_1" data-name="Capa 1" xmlns="http://www.w3.org/2000/svg" viewBox="0 0 270 75.9"><defs><style>.cls-1{fill:#121212;}.cls-11,.cls-2{fill:#ee6723;}.cls-14,.cls-3{fill:#f1a81f;}.cls-13,.cls-4{fill:#1bb2a9;}.cls-12,.cls-5{fill:#7ab4e2;}.cls-6{fill:#cd4f28;}.cls-7{fill:#c4852b;}.cls-8{fill:#009f8f;}.cls-9{fill:#478dbe;}.cls-10{fill:#666667;}.cls-11,.cls-12,.cls-13,.cls-14{fill-rule:evenodd;}</style></defs><title>icon-wallet-guide-logo-proximax-explorer</title><path class="cls-1" d="M71.7,15.23H84.37c5.93,0,9.94,4.35,9.94,10.5s-4,10.58-9.94,10.58H79.16v9.43H71.7ZM82.83,29.91c2.61,0,3.89-1.75,3.89-4.18s-1.28-4.1-3.76-4.1h-3.8v8.28Z"/><path class="cls-1" d="M97.67,23.46h7v5a7.52,7.52,0,0,1,6.9-5.38,5.44,5.44,0,0,1,.84.08v7.16a6.42,6.42,0,0,0-1.47-.13c-4,0-6,2.57-6,6.52v8.42H97.67Z"/><path class="cls-1" d="M127.16,23c6.86,0,12.33,4.59,12.33,11.41S134,45.63,127.2,45.63s-12.29-4.5-12.29-11.27S120.39,23,127.16,23m0,16.62a4.89,4.89,0,0,0,4.93-5.21c0-3.29-2.27-5.35-4.93-5.35s-4.92,2.06-4.92,5.35a4.89,4.89,0,0,0,4.92,5.21"/><path class="cls-1" d="M228.56,31.62h.63v-.38c0-1.81-1.47-2.4-3.07-2.4a11.41,11.41,0,0,0-6,2.06l-2.52-5.13A16.7,16.7,0,0,1,226.79,23c6,0,9.68,3.32,9.68,8.84V45.13h-6.65V42.48a7.94,7.94,0,0,1-6.44,3.15c-4.16,0-7.07-2.86-7.07-6.6,0-5.81,6.91-7.41,12.25-7.41m-3,8.59a4,4,0,0,0,3.7-3.84v-.58h-.67c-2.23,0-5.09.58-5.09,2.56a1.85,1.85,0,0,0,2.06,1.86"/><polygon class="cls-2" points="269.51 15.23 267.56 15.23 258.87 28.52 259.84 30.02 268.81 16.32 269.51 15.23"/><polygon class="cls-3" points="265.32 15.23 257.75 26.8 258.61 28.11 267.04 15.23 265.32 15.23"/><polygon class="cls-4" points="263.14 15.23 256.67 25.12 257.51 26.42 264.84 15.23 263.14 15.23"/><polygon class="cls-5" points="260.62 15.23 257.38 20.18 255.42 23.19 256.4 24.7 262.6 15.23 260.62 15.23"/><polygon class="cls-6" points="258.87 28.52 259.84 30.02 261.95 26.8 260.97 25.29 258.87 28.52"/><polygon class="cls-7" points="258.61 28.11 260.71 24.89 259.86 23.57 257.75 26.8 258.61 28.11"/><polygon class="cls-8" points="257.51 26.42 259.62 23.2 258.77 21.89 256.67 25.12 257.51 26.42"/><polygon class="cls-9" points="255.42 23.19 256.4 24.7 258.5 21.47 257.52 19.96 256.38 21.7 255.42 23.19"/><polygon class="cls-1" points="250.3 15.27 241.09 15.27 250.78 30.26 240.68 45.74 249.68 45.74 255.25 37.16 260.79 45.74 270 45.74 259.86 30.06 255.41 23.17 250.3 15.27"/><rect class="cls-1" x="167.08" y="23.46" width="7.28" height="21.67"/><rect class="cls-1" x="167.16" y="15.04" width="7.11" height="5.68"/><path class="cls-1" d="M179.41,23.68h7.3v2.85a7.65,7.65,0,0,1,6.19-3.31,6.37,6.37,0,0,1,6,3.38,8.76,8.76,0,0,1,7-3.38c4.42,0,7.11,2.77,7.11,7.61V45.36h-7.3V33.17c0-2.26-1.11-3.45-2.84-3.45s-3,1.19-3,3.45V45.36h-7.3V33.17c0-2.26-1.11-3.45-2.84-3.45s-3,1.19-3,3.45V45.36h-7.3Z"/><polygon class="cls-1" points="163.05 45.12 155.63 34.11 162.89 23.46 154.85 23.46 151.63 28.19 148.45 23.46 140.24 23.46 147.53 34.23 140.12 45.12 148.13 45.12 151.52 40.14 154.89 45.12 163.05 45.12"/><path class="cls-10" d="M94.31,54.72a.75.75,0,0,1-.19.23.42.42,0,0,1-.26.08.67.67,0,0,1-.4-.18c-.15-.11-.35-.24-.58-.38A4.78,4.78,0,0,0,92,54.1a3.92,3.92,0,0,0-2.35,0,2.59,2.59,0,0,0-.85.48,2.11,2.11,0,0,0-.51.71,2.39,2.39,0,0,0-.17.89,1.66,1.66,0,0,0,.3,1,2.65,2.65,0,0,0,.79.68,6.3,6.3,0,0,0,1.11.49l1.28.43c.43.15.86.32,1.27.5A4.44,4.44,0,0,1,94,60a3.13,3.13,0,0,1,.78,1,3.46,3.46,0,0,1,.3,1.52,4.77,4.77,0,0,1-.32,1.78,4.06,4.06,0,0,1-1,1.45,4.33,4.33,0,0,1-1.52,1,5.82,5.82,0,0,1-2.06.35,6.31,6.31,0,0,1-2.57-.51,6.08,6.08,0,0,1-2-1.38l.57-.93a.61.61,0,0,1,.2-.19.44.44,0,0,1,.25-.08.8.8,0,0,1,.49.23,8.1,8.1,0,0,0,.68.5,5.7,5.7,0,0,0,1,.5,4,4,0,0,0,1.43.23,3.67,3.67,0,0,0,1.24-.19,2.74,2.74,0,0,0,.93-.54,2.48,2.48,0,0,0,.58-.84,2.85,2.85,0,0,0,.2-1.08,1.81,1.81,0,0,0-.3-1.08,2.52,2.52,0,0,0-.78-.7,5.38,5.38,0,0,0-1.11-.48l-1.28-.41c-.43-.14-.86-.3-1.27-.48A4.13,4.13,0,0,1,87.42,59a3.27,3.27,0,0,1-.78-1.09,4.15,4.15,0,0,1,0-3.1,3.76,3.76,0,0,1,.86-1.27,4.25,4.25,0,0,1,1.4-.89,5.22,5.22,0,0,1,1.92-.34,6.09,6.09,0,0,1,2.22.39,5.07,5.07,0,0,1,1.75,1.11Z"/><path class="cls-10" d="M99.56,53.49a1.17,1.17,0,0,1-.11.49,1.37,1.37,0,0,1-.69.68,1.21,1.21,0,0,1-.5.1,1.16,1.16,0,0,1-.49-.1,1.42,1.42,0,0,1-.41-.28,1.23,1.23,0,0,1-.27-.4,1.16,1.16,0,0,1-.1-.49,1.21,1.21,0,0,1,.1-.5,1.32,1.32,0,0,1,.27-.42,1.42,1.42,0,0,1,.41-.28,1.34,1.34,0,0,1,.49-.1,1.39,1.39,0,0,1,.5.1,1.42,1.42,0,0,1,.41.28,1.54,1.54,0,0,1,.28.42A1.22,1.22,0,0,1,99.56,53.49Zm-.41,3.22V67h-1.8V56.71Z"/><path class="cls-10" d="M102.15,67V56.71h1a.53.53,0,0,1,.4.11.64.64,0,0,1,.16.38l.12,1.6a4.65,4.65,0,0,1,1.3-1.67,2.81,2.81,0,0,1,1.81-.61,3,3,0,0,1,.77.1,2.42,2.42,0,0,1,.64.27l-.23,1.34a.31.31,0,0,1-.32.26,1.38,1.38,0,0,1-.43-.1,2.89,2.89,0,0,0-.82-.1,2.33,2.33,0,0,0-1.57.55A4.06,4.06,0,0,0,104,60.43V67Z"/><path class="cls-10" d="M112.53,53.49a1.17,1.17,0,0,1-.11.49,1.26,1.26,0,0,1-.28.4,1.3,1.3,0,0,1-.41.28,1.18,1.18,0,0,1-.5.1,1.19,1.19,0,0,1-.49-.1,1.38,1.38,0,0,1-.4-.28,1.26,1.26,0,0,1-.28-.4,1.16,1.16,0,0,1-.1-.49,1.21,1.21,0,0,1,.1-.5,1.34,1.34,0,0,1,.28-.42,1.22,1.22,0,0,1,.89-.38,1.35,1.35,0,0,1,.5.1,1.3,1.3,0,0,1,.41.28,1.34,1.34,0,0,1,.28.42A1.22,1.22,0,0,1,112.53,53.49Zm-.4,3.22V67h-1.81V56.71Z"/><path class="cls-10" d="M116.68,56.71v6.53a2.73,2.73,0,0,0,.54,1.81,2,2,0,0,0,1.62.63,3.07,3.07,0,0,0,1.48-.37,4.65,4.65,0,0,0,1.29-1V56.71h1.8V67h-1.07a.47.47,0,0,1-.49-.38l-.14-1.1a5.83,5.83,0,0,1-1.5,1.19,3.92,3.92,0,0,1-1.9.45,3.59,3.59,0,0,1-1.48-.28,2.94,2.94,0,0,1-1.08-.78,3.29,3.29,0,0,1-.65-1.23,5.32,5.32,0,0,1-.22-1.59V56.71Z"/><path class="cls-10" d="M132.06,58.4a.4.4,0,0,1-.37.22.78.78,0,0,1-.35-.11,3.9,3.9,0,0,0-.47-.25,3.52,3.52,0,0,0-.66-.25,3.09,3.09,0,0,0-.91-.12,2.62,2.62,0,0,0-.82.12,1.74,1.74,0,0,0-.62.32,1.38,1.38,0,0,0-.4.47,1.24,1.24,0,0,0-.13.58,1,1,0,0,0,.22.66,2.25,2.25,0,0,0,.61.45,5.19,5.19,0,0,0,.85.34l1,.31,1,.37a3.76,3.76,0,0,1,.85.51,2.28,2.28,0,0,1,.6.74,2.33,2.33,0,0,1,.23,1.06,3.51,3.51,0,0,1-.25,1.31,2.86,2.86,0,0,1-.75,1,3.55,3.55,0,0,1-1.22.7,5,5,0,0,1-1.66.25,5.23,5.23,0,0,1-1.94-.35,5,5,0,0,1-1.48-.89l.43-.69A.65.65,0,0,1,126,65a.59.59,0,0,1,.29-.07.69.69,0,0,1,.39.15l.49.31a3.56,3.56,0,0,0,.7.31,3,3,0,0,0,1,.14,2.94,2.94,0,0,0,.93-.13,1.94,1.94,0,0,0,.65-.37,1.43,1.43,0,0,0,.39-.54,1.57,1.57,0,0,0,.13-.65,1.09,1.09,0,0,0-.23-.7,1.93,1.93,0,0,0-.6-.47,4.53,4.53,0,0,0-.86-.35l-1-.31c-.33-.11-.66-.23-1-.37a3.46,3.46,0,0,1-.85-.52,2.25,2.25,0,0,1-.83-1.89,2.76,2.76,0,0,1,.24-1.13,2.73,2.73,0,0,1,.71-1,3.51,3.51,0,0,1,1.14-.65,4.62,4.62,0,0,1,1.55-.25,5,5,0,0,1,1.82.32,4.51,4.51,0,0,1,1.39.88Z"/><path class="cls-10" d="M134.33,60.13h5v1.52h-5Z"/><path class="cls-10" d="M152.14,64a.41.41,0,0,1,.29.13l.77.84A6.06,6.06,0,0,1,151,66.54a8,8,0,0,1-5.9,0A6.25,6.25,0,0,1,143,65.06a7,7,0,0,1-1.4-2.34,8.8,8.8,0,0,1-.49-3,8.29,8.29,0,0,1,.53-3,6.79,6.79,0,0,1,1.49-2.35,6.71,6.71,0,0,1,2.31-1.53,7.84,7.84,0,0,1,3-.54,7,7,0,0,1,2.75.5,6.81,6.81,0,0,1,2.06,1.35l-.63.9a.85.85,0,0,1-.17.16.4.4,0,0,1-.26.07.48.48,0,0,1-.28-.1l-.35-.23a5.49,5.49,0,0,0-.47-.31,3.94,3.94,0,0,0-.65-.3,4.53,4.53,0,0,0-.87-.24,6.36,6.36,0,0,0-1.14-.1,5.7,5.7,0,0,0-2.14.4,4.92,4.92,0,0,0-1.66,1.14,5.17,5.17,0,0,0-1.09,1.8,6.87,6.87,0,0,0-.39,2.38,7,7,0,0,0,.39,2.42,5.5,5.5,0,0,0,1.06,1.8,4.5,4.5,0,0,0,1.6,1.12,5.17,5.17,0,0,0,2,.38,8.27,8.27,0,0,0,1.17-.08,5.28,5.28,0,0,0,.95-.23,4.19,4.19,0,0,0,.82-.41,6.71,6.71,0,0,0,.77-.6A.49.49,0,0,1,152.14,64Z"/><path class="cls-10" d="M155.32,67V52.05h1.8v6A5.58,5.58,0,0,1,158.58,57a3.87,3.87,0,0,1,1.84-.42,3.79,3.79,0,0,1,1.48.28,2.85,2.85,0,0,1,1.07.79,3.46,3.46,0,0,1,.66,1.23,5.32,5.32,0,0,1,.22,1.59V67h-1.8V60.43a2.79,2.79,0,0,0-.53-1.81,2,2,0,0,0-1.63-.64,3,3,0,0,0-1.49.39,4.76,4.76,0,0,0-1.28,1V67Z"/><path class="cls-10" d="M173.92,67h-.8a1,1,0,0,1-.43-.08.5.5,0,0,1-.21-.35l-.2-1c-.27.24-.53.46-.79.65a4.26,4.26,0,0,1-.81.49,4.32,4.32,0,0,1-.9.3,5.12,5.12,0,0,1-1.07.1,3.7,3.7,0,0,1-1.12-.17,2.6,2.6,0,0,1-.91-.5,2.44,2.44,0,0,1-.61-.85,3,3,0,0,1-.23-1.21,2.18,2.18,0,0,1,.34-1.17,2.85,2.85,0,0,1,1.08-1,6.75,6.75,0,0,1,1.94-.72,13.12,13.12,0,0,1,3-.28v-.8a2.78,2.78,0,0,0-.51-1.82,1.87,1.87,0,0,0-1.52-.62,3.22,3.22,0,0,0-1.1.17,4,4,0,0,0-.78.37l-.57.38a.83.83,0,0,1-.47.16.57.57,0,0,1-.32-.09,1,1,0,0,1-.22-.24l-.32-.58a6,6,0,0,1,1.83-1.22,5.68,5.68,0,0,1,2.18-.41,3.82,3.82,0,0,1,1.52.29,3.16,3.16,0,0,1,1.13.79,3.38,3.38,0,0,1,.69,1.22,5.29,5.29,0,0,1,.23,1.58Zm-4.68-1.11a3.88,3.88,0,0,0,.87-.09,4.15,4.15,0,0,0,.75-.27,5.41,5.41,0,0,0,.67-.43,6.67,6.67,0,0,0,.62-.58V62.36a12.64,12.64,0,0,0-2.12.16,6,6,0,0,0-1.41.41,2,2,0,0,0-.8.6,1.34,1.34,0,0,0-.25.78,1.68,1.68,0,0,0,.14.7,1.15,1.15,0,0,0,.35.48,1.35,1.35,0,0,0,.53.28A2.27,2.27,0,0,0,169.24,65.85Z"/><path class="cls-10" d="M178.88,53.49a1.17,1.17,0,0,1-.11.49,1.26,1.26,0,0,1-.28.4,1.42,1.42,0,0,1-.41.28,1.21,1.21,0,0,1-.5.1,1.16,1.16,0,0,1-.49-.1,1.38,1.38,0,0,1-.4-.28,1.26,1.26,0,0,1-.28-.4,1.16,1.16,0,0,1-.1-.49,1.21,1.21,0,0,1,.1-.5,1.34,1.34,0,0,1,.28-.42,1.38,1.38,0,0,1,.4-.28,1.34,1.34,0,0,1,.49-.1,1.39,1.39,0,0,1,.5.1,1.42,1.42,0,0,1,.41.28,1.34,1.34,0,0,1,.28.42A1.22,1.22,0,0,1,178.88,53.49Zm-.41,3.22V67h-1.8V56.71Z"/><path class="cls-10" d="M181.47,67V56.71h1.07a.46.46,0,0,1,.49.37l.14,1.11A5.62,5.62,0,0,1,184.66,57a3.94,3.94,0,0,1,1.91-.46,3.79,3.79,0,0,1,1.48.28,3,3,0,0,1,1.08.79,3.61,3.61,0,0,1,.65,1.23,5.32,5.32,0,0,1,.22,1.59V67h-1.8V60.43a2.79,2.79,0,0,0-.53-1.81A2,2,0,0,0,186,58a3,3,0,0,0-1.49.39,4.76,4.76,0,0,0-1.28,1V67Z"/><path class="cls-10" d="M205.48,52.46v1.59h-7v4.82h5.64v1.54h-5.64v5h7V67h-8.93V52.46Z"/><path class="cls-10" d="M210.24,61.71l-3.45-5h1.73a.52.52,0,0,1,.32.07.61.61,0,0,1,.19.2l2.51,3.84a2.54,2.54,0,0,1,.26-.56L214,57a1.14,1.14,0,0,1,.2-.23.36.36,0,0,1,.25-.08h1.66l-3.45,4.89L216.26,67h-1.73a.5.5,0,0,1-.35-.12,1,1,0,0,1-.2-.26l-2.59-4a1.5,1.5,0,0,1-.21.52l-2.39,3.49a1.83,1.83,0,0,1-.21.26.44.44,0,0,1-.32.12h-1.61Z"/><path class="cls-10" d="M217.86,70.43V56.71h1.07a.46.46,0,0,1,.49.37l.15,1.21a5.5,5.5,0,0,1,1.5-1.28,3.92,3.92,0,0,1,2-.49,3.79,3.79,0,0,1,1.6.34,3.38,3.38,0,0,1,1.23,1,5.16,5.16,0,0,1,.78,1.65,8.54,8.54,0,0,1,.27,2.26,6.86,6.86,0,0,1-.31,2.11,5.1,5.1,0,0,1-.87,1.69,4,4,0,0,1-1.39,1.12,4.15,4.15,0,0,1-1.85.41,4,4,0,0,1-1.63-.31,3.79,3.79,0,0,1-1.19-.89v4.53ZM222.43,58a2.91,2.91,0,0,0-1.55.41,4.49,4.49,0,0,0-1.22,1.14v5a3,3,0,0,0,1.09.94,3.15,3.15,0,0,0,1.32.27,2.6,2.6,0,0,0,2.2-1,4.78,4.78,0,0,0,.77-2.91,7.15,7.15,0,0,0-.18-1.72,3.39,3.39,0,0,0-.51-1.18,2.06,2.06,0,0,0-.82-.68A2.77,2.77,0,0,0,222.43,58Z"/><path class="cls-10" d="M230.86,52.05V67h-1.81V52.05Z"/><path class="cls-10" d="M238,56.54a5.25,5.25,0,0,1,2,.38A4.29,4.29,0,0,1,241.57,58a4.74,4.74,0,0,1,1,1.67,7.16,7.16,0,0,1,0,4.36,4.79,4.79,0,0,1-1,1.66A4.29,4.29,0,0,1,240,66.73a5.75,5.75,0,0,1-4.06,0,4.29,4.29,0,0,1-1.54-1.06,4.66,4.66,0,0,1-1-1.66,7,7,0,0,1,0-4.36,4.61,4.61,0,0,1,1-1.67A4.29,4.29,0,0,1,236,56.92,5.28,5.28,0,0,1,238,56.54Zm0,9.15a2.66,2.66,0,0,0,2.27-1,5.79,5.79,0,0,0,0-5.7A2.64,2.64,0,0,0,238,58a3.27,3.27,0,0,0-1.34.26,2.57,2.57,0,0,0-.94.76,3.53,3.53,0,0,0-.57,1.22,7.13,7.13,0,0,0,0,3.27,3.48,3.48,0,0,0,.57,1.21,2.65,2.65,0,0,0,.94.75A3.11,3.11,0,0,0,238,65.69Z"/><path class="cls-10" d="M244.92,67V56.71h1a.55.55,0,0,1,.41.11.71.71,0,0,1,.15.38l.12,1.6a4.76,4.76,0,0,1,1.3-1.67,2.86,2.86,0,0,1,1.82-.61,3.06,3.06,0,0,1,.77.1,2.42,2.42,0,0,1,.64.27l-.24,1.34a.3.3,0,0,1-.31.26,1.49,1.49,0,0,1-.44-.1,2.77,2.77,0,0,0-.81-.1,2.35,2.35,0,0,0-1.58.55,4.29,4.29,0,0,0-1.06,1.59V67Z"/><path class="cls-10" d="M257,56.54a4.71,4.71,0,0,1,1.7.31,4.08,4.08,0,0,1,1.34.89,4.18,4.18,0,0,1,.89,1.44,5.61,5.61,0,0,1,.32,2,1.09,1.09,0,0,1-.1.57.38.38,0,0,1-.34.14H254a5.66,5.66,0,0,0,.26,1.69,3.47,3.47,0,0,0,.67,1.2,2.68,2.68,0,0,0,1,.72,3.65,3.65,0,0,0,1.32.23,4.06,4.06,0,0,0,1.17-.15,6.34,6.34,0,0,0,.84-.34,5.55,5.55,0,0,0,.59-.34.77.77,0,0,1,.41-.16.41.41,0,0,1,.35.17l.5.66a3,3,0,0,1-.8.7,4.56,4.56,0,0,1-1,.49,5.94,5.94,0,0,1-1.1.29,6.14,6.14,0,0,1-1.12.1,5.22,5.22,0,0,1-2-.36,4.35,4.35,0,0,1-1.55-1,4.88,4.88,0,0,1-1-1.72,7,7,0,0,1-.36-2.35,6,6,0,0,1,.33-2,4.68,4.68,0,0,1,.94-1.61A4.35,4.35,0,0,1,255,56.93,4.94,4.94,0,0,1,257,56.54Zm0,1.33a2.79,2.79,0,0,0-2.06.75,3.56,3.56,0,0,0-.93,2.09h5.58a3.45,3.45,0,0,0-.18-1.14,2.6,2.6,0,0,0-.5-.91,2.31,2.31,0,0,0-.82-.58A2.68,2.68,0,0,0,257,57.87Z"/><path class="cls-10" d="M263.32,67V56.71h1a.56.56,0,0,1,.41.11.71.71,0,0,1,.15.38l.12,1.6a4.76,4.76,0,0,1,1.3-1.67,2.84,2.84,0,0,1,1.82-.61,3.06,3.06,0,0,1,.77.1,2.42,2.42,0,0,1,.64.27l-.24,1.34a.31.31,0,0,1-.31.26,1.43,1.43,0,0,1-.44-.1,2.84,2.84,0,0,0-.82-.1,2.35,2.35,0,0,0-1.57.55,4.29,4.29,0,0,0-1.06,1.59V67Z"/><path class="cls-11" d="M39.05,7.47c8.41-2.4,12-1.78,18.54-1.1A65.7,65.7,0,0,0,29.62,0c-1.44,0-2.88.05-4.31.15a25.84,25.84,0,0,1,5.81,4.36c1,1,3.05,3.41,4.46,3.66a9.33,9.33,0,0,0,3.47-.7"/><path class="cls-12" d="M49.48,41.87c-.73-3.24-1.69-6.46-2.69-9.55-.53-1.61-1.1-3.21-1.66-4.81S44,24.4,43.34,22.86c-2.81-6.58-2.52-6.61,2.61-9.57,3.49-1.78,9-4.29,12.89-4.09l.41,0a59.77,59.77,0,0,1-9.77,32.65"/><path class="cls-13" d="M6.29,35.81c3.33-2.62,7.06-5.13,9.78-6.84a114.94,114.94,0,0,1,11.19-6.09,13.46,13.46,0,0,1,3.93-1.45,2.7,2.7,0,0,1,1.22.13c1.23.52,3.29,3.85,3.29,3.85l0,0c.36.54.7,1.1,1.08,1.63s.79,1.19,1.15,1.78c.54.89,1.08,1.78,1.61,2.68.85,1.44,1.78,3,2.55,4.45,1.28,2.48,3.07,6,4.6,9.76a59.69,59.69,0,0,1-16.25,14.5l-.85.51-.85-.51A59.76,59.76,0,0,1,6.29,35.81"/><path class="cls-14" d="M19.13.88c.31.34.6.67.86,1,.59.7,1.16,1.45,1.71,2.18a24.65,24.65,0,0,1,1.86,2.6c.78,1.42,2.44,3.56,2.93,4.87a2.67,2.67,0,0,1,.19,1.28,1.74,1.74,0,0,1-.62.89c-.63.52-.95.69-1.49,1.08-2.4,1.76-4.68,3.63-7,5.47C15,22.3,12.39,24.73,10,27c-1.64,1.6-3.5,3.51-5.22,5.53A59.63,59.63,0,0,1,0,8.17v-1l.91-.44A67,67,0,0,1,19.13.88"/></svg>