<svg id="Layer_1" data-name="Layer 1" xmlns="http://www.w3.org/2000/svg" viewBox="0 0 182 54"><defs><style>.cls-1{fill:#2aa0b8;}.cls-2{fill:#aaa;}.cls-3,.cls-8{fill:#f06622;}.cls-3,.cls-4,.cls-5,.cls-6{fill-rule:evenodd;}.cls-11,.cls-4{fill:#79b5e2;}.cls-10,.cls-5{fill:#1cb4ab;}.cls-6,.cls-9{fill:#f2a91d;}.cls-7{fill:#121212;}.cls-12{fill:#cd4f27;}.cls-13{fill:#c6862b;}.cls-14{fill:#009f90;}.cls-15{fill:#488ebe;}</style></defs><title>logo-proximax-sirius-explorer-beta</title><path class="cls-1" d="M53.56,40.29a.79.79,0,0,1-.15.19.38.38,0,0,1-.22.06.61.61,0,0,1-.33-.14,3.48,3.48,0,0,0-.47-.31,3.17,3.17,0,0,0-.69-.31,3.18,3.18,0,0,0-1.93,0,2.08,2.08,0,0,0-.69.39,1.6,1.6,0,0,0-.42.59,1.76,1.76,0,0,0-.14.73,1.35,1.35,0,0,0,.24.82,2,2,0,0,0,.65.56,4.46,4.46,0,0,0,.91.4l1,.36c.35.12.7.26,1,.41a3.74,3.74,0,0,1,.92.57,2.67,2.67,0,0,1,.89,2.1A4,4,0,0,1,54,48.18a3.26,3.26,0,0,1-.77,1.19,3.68,3.68,0,0,1-1.26.8,4.64,4.64,0,0,1-1.69.29,5,5,0,0,1-3.72-1.55l.46-.77a.75.75,0,0,1,.16-.15.43.43,0,0,1,.22-.06.67.67,0,0,1,.39.18,6.34,6.34,0,0,0,.56.41,4.18,4.18,0,0,0,.82.41,3.1,3.1,0,0,0,1.16.19,2.88,2.88,0,0,0,1-.16,2,2,0,0,0,.76-.44,1.87,1.87,0,0,0,.48-.69,2.26,2.26,0,0,0,.17-.88,1.46,1.46,0,0,0-.25-.89,2,2,0,0,0-.64-.57,4.46,4.46,0,0,0-.91-.4l-1-.33c-.36-.11-.71-.25-1-.39a3.47,3.47,0,0,1-.91-.59,2.45,2.45,0,0,1-.64-.89,3.35,3.35,0,0,1,0-2.54A3.2,3.2,0,0,1,48,39.3a3.43,3.43,0,0,1,1.15-.73,4.23,4.23,0,0,1,1.57-.27,5.08,5.08,0,0,1,1.82.31,4.23,4.23,0,0,1,1.43.92Z"/><path class="cls-1" d="M57.65,39.28a.9.9,0,0,1-.09.4,1.3,1.3,0,0,1-.23.33,1,1,0,0,1-.34.23.94.94,0,0,1-.41.08.92.92,0,0,1-.4-.08,1,1,0,0,1-.33-.23,1.09,1.09,0,0,1-.23-.33,1.06,1.06,0,0,1-.08-.4,1.11,1.11,0,0,1,.08-.41,1,1,0,0,1,.23-.34,1,1,0,0,1,.33-.23.93.93,0,0,1,.4-.09,1,1,0,0,1,.41.09,1,1,0,0,1,.34.23,1.2,1.2,0,0,1,.23.34A1,1,0,0,1,57.65,39.28Zm-.34,2.64v8.41H55.84V41.92Z"/><path class="cls-1" d="M59.56,50.33V41.92h.84a.47.47,0,0,1,.33.09.53.53,0,0,1,.13.31l.1,1.31A4,4,0,0,1,62,42.26a2.36,2.36,0,0,1,1.49-.49,2.12,2.12,0,0,1,.64.08,2,2,0,0,1,.52.22l-.19,1.1a.26.26,0,0,1-.26.21,1.4,1.4,0,0,1-.36-.08,2.3,2.3,0,0,0-.67-.08,1.91,1.91,0,0,0-1.29.45A3.4,3.4,0,0,0,61,45v5.36Z"/><path class="cls-1" d="M67.86,39.28a.9.9,0,0,1-.09.4,1.3,1.3,0,0,1-.23.33,1,1,0,0,1-.34.23.94.94,0,0,1-.41.08.9.9,0,0,1-.4-.08,1,1,0,0,1-.33-.23.94.94,0,0,1-.23-.33.9.9,0,0,1-.08-.4.94.94,0,0,1,.08-.41.89.89,0,0,1,.23-.34,1,1,0,0,1,.33-.23.9.9,0,0,1,.4-.09,1,1,0,0,1,.41.09,1,1,0,0,1,.34.23,1.2,1.2,0,0,1,.23.34A1,1,0,0,1,67.86,39.28Zm-.34,2.64v8.41H66.05V41.92Z"/><path class="cls-1" d="M71,41.92v5.36a2.25,2.25,0,0,0,.44,1.48,1.68,1.68,0,0,0,1.33.52A2.49,2.49,0,0,0,74,49a3.78,3.78,0,0,0,1-.85v-6.2h1.48v8.41h-.88a.39.39,0,0,1-.4-.31l-.11-.91a4.74,4.74,0,0,1-1.23,1,3.27,3.27,0,0,1-1.56.37,3.09,3.09,0,0,1-1.22-.23,2.47,2.47,0,0,1-.88-.64,2.8,2.8,0,0,1-.54-1,4.45,4.45,0,0,1-.17-1.3V41.92Z"/><path class="cls-1" d="M83.44,43.3a.33.33,0,0,1-.3.19.53.53,0,0,1-.29-.1l-.38-.2a5.37,5.37,0,0,0-.55-.21,2.73,2.73,0,0,0-.74-.09,2.38,2.38,0,0,0-.68.09,1.65,1.65,0,0,0-.51.27,1.16,1.16,0,0,0-.32.38,1.13,1.13,0,0,0-.11.48.79.79,0,0,0,.19.54,1.47,1.47,0,0,0,.49.37,3.78,3.78,0,0,0,.7.28l.8.26c.27.09.54.19.8.3a3.22,3.22,0,0,1,.7.41,2.09,2.09,0,0,1,.49.61,1.93,1.93,0,0,1,.19.87,2.74,2.74,0,0,1-.21,1.08,2.25,2.25,0,0,1-.62.85,3,3,0,0,1-1,.57,4,4,0,0,1-1.36.21,4.3,4.3,0,0,1-1.6-.29,4,4,0,0,1-1.21-.73l.35-.57a.49.49,0,0,1,.16-.16.43.43,0,0,1,.24-.06.58.58,0,0,1,.31.11,4.27,4.27,0,0,0,.41.26,2.77,2.77,0,0,0,.57.26,2.49,2.49,0,0,0,.84.12,2.2,2.2,0,0,0,.76-.12,1.57,1.57,0,0,0,.54-.3,1.25,1.25,0,0,0,.32-.44,1.35,1.35,0,0,0,.1-.53.86.86,0,0,0-.19-.58,1.62,1.62,0,0,0-.49-.39,4.08,4.08,0,0,0-.7-.28l-.81-.25a7.77,7.77,0,0,1-.8-.31,2.55,2.55,0,0,1-.7-.42,2,2,0,0,1-.5-.64,2.13,2.13,0,0,1-.18-.92,2.18,2.18,0,0,1,.78-1.7,2.81,2.81,0,0,1,.93-.54,4.19,4.19,0,0,1,2.76.07,3.49,3.49,0,0,1,1.14.71Z"/><path class="cls-1" d="M95.87,38.43v1.31H90.16v3.95h4.62V45H90.16v4h5.71v1.32H88.54V38.43Z"/><path class="cls-1" d="M99.55,46l-2.83-4.1h1.42a.49.49,0,0,1,.27.06.59.59,0,0,1,.15.16l2.06,3.15a2.65,2.65,0,0,1,.21-.46l1.81-2.66a1.49,1.49,0,0,1,.17-.18.27.27,0,0,1,.2-.07h1.37l-2.84,4,2.95,4.4h-1.42a.4.4,0,0,1-.28-.1.68.68,0,0,1-.17-.21l-2.12-3.3a1.68,1.68,0,0,1-.17.43l-2,2.87a2,2,0,0,1-.18.21.38.38,0,0,1-.26.1H96.61Z"/><path class="cls-1" d="M105.59,53.17V41.92h.88a.38.38,0,0,1,.4.3l.12,1a4.36,4.36,0,0,1,1.23-1,3.12,3.12,0,0,1,1.6-.4,3,3,0,0,1,1.31.28,2.64,2.64,0,0,1,1,.82,4,4,0,0,1,.63,1.35,6.83,6.83,0,0,1,.23,1.85,5.7,5.7,0,0,1-.25,1.73,4.29,4.29,0,0,1-.71,1.38,3.28,3.28,0,0,1-2.67,1.26,2.91,2.91,0,0,1-2.31-1v3.72ZM109.33,43a2.43,2.43,0,0,0-1.27.33,4,4,0,0,0-1,.94V48.3a2.3,2.3,0,0,0,.9.77,2.52,2.52,0,0,0,1.08.23,2.12,2.12,0,0,0,1.8-.84,3.93,3.93,0,0,0,.63-2.39,6.33,6.33,0,0,0-.14-1.41,2.81,2.81,0,0,0-.42-1,1.63,1.63,0,0,0-.68-.55A2.13,2.13,0,0,0,109.33,43Z"/><path class="cls-1" d="M116,38.1V50.33h-1.48V38.1Z"/><path class="cls-1" d="M121.67,41.78a4.44,4.44,0,0,1,1.67.31,3.74,3.74,0,0,1,1.26.87,3.85,3.85,0,0,1,.79,1.37,5.86,5.86,0,0,1,0,3.58,3.9,3.9,0,0,1-.79,1.36,3.48,3.48,0,0,1-1.26.87,4.44,4.44,0,0,1-1.67.3,4.38,4.38,0,0,1-1.66-.3,3.43,3.43,0,0,1-1.27-.87,3.77,3.77,0,0,1-.8-1.36,5.86,5.86,0,0,1,0-3.58,3.73,3.73,0,0,1,.8-1.37,3.68,3.68,0,0,1,1.27-.87A4.38,4.38,0,0,1,121.67,41.78Zm0,7.51a2.15,2.15,0,0,0,1.86-.84,3.84,3.84,0,0,0,.62-2.33,3.9,3.9,0,0,0-.62-2.34,2.17,2.17,0,0,0-1.86-.83,2.62,2.62,0,0,0-1.09.21,2.15,2.15,0,0,0-.78.62,2.76,2.76,0,0,0-.46,1,5.65,5.65,0,0,0,0,2.67,2.67,2.67,0,0,0,.46,1,2,2,0,0,0,.78.62A2.47,2.47,0,0,0,121.67,49.29Z"/><path class="cls-1" d="M127.13,50.33V41.92H128a.47.47,0,0,1,.33.09.53.53,0,0,1,.13.31l.1,1.31a3.83,3.83,0,0,1,1.06-1.37,2.36,2.36,0,0,1,1.49-.49,2,2,0,0,1,.63.08,1.91,1.91,0,0,1,.53.22l-.19,1.1a.26.26,0,0,1-.26.21,1.4,1.4,0,0,1-.36-.08,2.3,2.3,0,0,0-.67-.08,1.88,1.88,0,0,0-1.29.45,3.29,3.29,0,0,0-.87,1.3v5.36Z"/><path class="cls-1" d="M136.79,41.78a3.74,3.74,0,0,1,1.39.26,3.07,3.07,0,0,1,1.1.73A3.28,3.28,0,0,1,140,44a4.61,4.61,0,0,1,.26,1.59,1,1,0,0,1-.07.47.31.31,0,0,1-.28.11h-5.6a4.36,4.36,0,0,0,.22,1.39,2.94,2.94,0,0,0,.54,1,2.23,2.23,0,0,0,.84.58,2.83,2.83,0,0,0,1.07.2,3.05,3.05,0,0,0,1-.13,5.36,5.36,0,0,0,.7-.28,4.74,4.74,0,0,0,.48-.28.67.67,0,0,1,.34-.12.31.31,0,0,1,.28.14l.41.54a2.75,2.75,0,0,1-.65.57,4.19,4.19,0,0,1-.82.41,5.4,5.4,0,0,1-.9.23,4.84,4.84,0,0,1-.92.08,4.43,4.43,0,0,1-1.61-.29,3.6,3.6,0,0,1-1.27-.87,4,4,0,0,1-.83-1.4,5.71,5.71,0,0,1-.3-1.93,4.86,4.86,0,0,1,.27-1.64,3.93,3.93,0,0,1,.78-1.33,3.68,3.68,0,0,1,1.23-.88A4.15,4.15,0,0,1,136.79,41.78Zm0,1.09a2.3,2.3,0,0,0-1.69.62,2.89,2.89,0,0,0-.76,1.71h4.57a2.85,2.85,0,0,0-.14-.94,2.14,2.14,0,0,0-.41-.74,2,2,0,0,0-.67-.48A2.29,2.29,0,0,0,136.82,42.87Z"/><path class="cls-1" d="M141.79,50.33V41.92h.85A.47.47,0,0,1,143,42a.53.53,0,0,1,.12.31l.1,1.31a4,4,0,0,1,1.07-1.37,2.34,2.34,0,0,1,1.49-.49,2.09,2.09,0,0,1,.63.08,1.85,1.85,0,0,1,.52.22l-.19,1.1a.25.25,0,0,1-.25.21,1.4,1.4,0,0,1-.36-.08,2.35,2.35,0,0,0-.67-.08,1.88,1.88,0,0,0-1.29.45,3.29,3.29,0,0,0-.87,1.3v5.36Z"/><path class="cls-2" d="M151.19,50.33V38.43H155a7,7,0,0,1,1.89.22,3.65,3.65,0,0,1,1.3.61,2.51,2.51,0,0,1,.76,1,3.31,3.31,0,0,1,.24,1.3,2.63,2.63,0,0,1-.13.84,2.71,2.71,0,0,1-.42.76,3,3,0,0,1-.7.62,4,4,0,0,1-1,.45,3.65,3.65,0,0,1,2,.94,2.46,2.46,0,0,1,.66,1.79,3.31,3.31,0,0,1-.28,1.38,2.9,2.9,0,0,1-.81,1.07,3.8,3.8,0,0,1-1.31.69,6,6,0,0,1-1.77.25Zm1.61-6.57h2.12a4.08,4.08,0,0,0,1.18-.15,2.58,2.58,0,0,0,.83-.41,1.6,1.6,0,0,0,.48-.65,2,2,0,0,0,.16-.82,1.83,1.83,0,0,0-.63-1.54,3.16,3.16,0,0,0-2-.49H152.8Zm0,1.15v4.14h2.57a4.06,4.06,0,0,0,1.18-.16,2.37,2.37,0,0,0,.82-.44,1.81,1.81,0,0,0,.47-.69,2.39,2.39,0,0,0,.15-.86,1.78,1.78,0,0,0-.66-1.46,3,3,0,0,0-2-.53Z"/><path class="cls-2" d="M164.66,41.78a3.7,3.7,0,0,1,1.39.26,3.11,3.11,0,0,1,1.11.73,3.26,3.26,0,0,1,.72,1.18,4.38,4.38,0,0,1,.26,1.59,1,1,0,0,1-.07.47c0,.08-.14.11-.28.11h-5.6a4.65,4.65,0,0,0,.22,1.39,2.79,2.79,0,0,0,.55,1,2.19,2.19,0,0,0,.83.58,2.85,2.85,0,0,0,1.08.2,3,3,0,0,0,.95-.13,5.36,5.36,0,0,0,.7-.28,4.74,4.74,0,0,0,.48-.28.7.7,0,0,1,.34-.12.31.31,0,0,1,.28.14l.42.54a3,3,0,0,1-.66.57,3.93,3.93,0,0,1-.82.41,5.4,5.4,0,0,1-.9.23,4.77,4.77,0,0,1-.92.08,4.43,4.43,0,0,1-1.61-.29,3.56,3.56,0,0,1-1.26-.87,3.91,3.91,0,0,1-.84-1.4,5.71,5.71,0,0,1-.3-1.93,4.86,4.86,0,0,1,.27-1.64,3.93,3.93,0,0,1,.78-1.33A3.78,3.78,0,0,1,163,42.1,4.15,4.15,0,0,1,164.66,41.78Zm0,1.09a2.27,2.27,0,0,0-1.68.62,2.9,2.9,0,0,0-.77,1.71h4.58a2.85,2.85,0,0,0-.15-.94,2.14,2.14,0,0,0-.41-.74,2,2,0,0,0-.67-.48A2.29,2.29,0,0,0,164.69,42.87Z"/><path class="cls-2" d="M172.21,50.46a2,2,0,0,1-1.53-.56,2.2,2.2,0,0,1-.54-1.6V43.15h-1a.32.32,0,0,1-.22-.07.33.33,0,0,1-.09-.25v-.59l1.37-.17.34-2.6a.36.36,0,0,1,.11-.2.32.32,0,0,1,.24-.08h.74v2.89H174v1.07h-2.41V48.2a1.09,1.09,0,0,0,.26.79.9.9,0,0,0,.66.26,1,1,0,0,0,.41-.07,1.57,1.57,0,0,0,.29-.13l.21-.14a.29.29,0,0,1,.16-.06.24.24,0,0,1,.2.14l.43.7a2.58,2.58,0,0,1-.92.56A3,3,0,0,1,172.21,50.46Z"/><path class="cls-2" d="M181.66,50.33H181a.83.83,0,0,1-.35-.07.35.35,0,0,1-.17-.28l-.17-.78c-.22.2-.44.37-.65.53a3.75,3.75,0,0,1-.66.4,3.58,3.58,0,0,1-.74.25,4.79,4.79,0,0,1-.88.08,3.06,3.06,0,0,1-.92-.14,2.14,2.14,0,0,1-.74-.41,2,2,0,0,1-.5-.7,2.33,2.33,0,0,1-.19-1,1.84,1.84,0,0,1,.27-1,2.38,2.38,0,0,1,.89-.82,5.66,5.66,0,0,1,1.6-.59,11,11,0,0,1,2.41-.23V45a2.26,2.26,0,0,0-.42-1.49,1.51,1.51,0,0,0-1.24-.51,2.68,2.68,0,0,0-.91.14,3.18,3.18,0,0,0-.64.31l-.46.3a.62.62,0,0,1-.39.14.4.4,0,0,1-.26-.08.81.81,0,0,1-.18-.19l-.26-.48a4.8,4.8,0,0,1,1.5-1,4.66,4.66,0,0,1,1.78-.33A3.11,3.11,0,0,1,180,42a2.65,2.65,0,0,1,.92.65,2.58,2.58,0,0,1,.56,1,4.13,4.13,0,0,1,.19,1.3Zm-3.83-.91a3.08,3.08,0,0,0,.71-.08,2.94,2.94,0,0,0,.61-.22,3.25,3.25,0,0,0,.55-.36,3.19,3.19,0,0,0,.51-.47V46.56a9.46,9.46,0,0,0-1.73.13,4.39,4.39,0,0,0-1.16.33,1.69,1.69,0,0,0-.66.5,1.1,1.1,0,0,0-.2.63,1.46,1.46,0,0,0,.11.58,1.11,1.11,0,0,0,.72.62A1.9,1.9,0,0,0,177.83,49.42Z"/><path class="cls-3" d="M26.47,5.06c5.7-1.62,8.12-1.2,12.57-.74A44.61,44.61,0,0,0,20.08,0c-1,0-1.95,0-2.92.1a17.85,17.85,0,0,1,3.93,3c.68.69,2.07,2.31,3,2.48a6.31,6.31,0,0,0,2.35-.48"/><path class="cls-4" d="M33.54,28.38c-.5-2.2-1.15-4.38-1.83-6.47-.35-1.1-.74-2.18-1.12-3.26s-.79-2.11-1.22-3.15C27.47,11,27.67,11,31.15,9c2.36-1.21,6.07-2.91,8.73-2.78l.28,0a40.52,40.52,0,0,1-6.62,22.13"/><path class="cls-5" d="M4.26,24.28c2.26-1.79,4.79-3.48,6.63-4.65a77.6,77.6,0,0,1,7.59-4.12,8.93,8.93,0,0,1,2.66-1,2.09,2.09,0,0,1,.83.09c.83.36,2.23,2.61,2.23,2.61l0,0c.25.36.47.74.73,1.1s.53.81.78,1.21c.37.6.73,1.2,1.09,1.81.58,1,1.21,2,1.73,3,.87,1.68,2.08,4.06,3.12,6.61a40.41,40.41,0,0,1-11,9.83l-.58.35-.58-.35A40.5,40.5,0,0,1,4.26,24.28"/><path class="cls-6" d="M13,.6c.21.22.4.45.58.67.4.47.79,1,1.16,1.48A16.6,16.6,0,0,1,16,4.51c.53,1,1.65,2.41,2,3.3a1.71,1.71,0,0,1,.12.86,1.15,1.15,0,0,1-.41.61c-.44.35-.65.47-1,.73-1.62,1.19-3.17,2.46-4.74,3.71-1.76,1.4-3.51,3-5.13,4.61-1.11,1.08-2.36,2.38-3.53,3.75A40.29,40.29,0,0,1,0,5.54V4.85l.61-.3A45.59,45.59,0,0,1,13,.6"/><path class="cls-7" d="M48.33,10.27h8.54c4,0,6.7,2.93,6.7,7.07s-2.7,7.13-6.7,7.13H53.36v6.36h-5Zm7.51,9.89a2.5,2.5,0,0,0,2.61-2.82c0-1.64-.86-2.76-2.53-2.76H53.36v5.58Z"/><path class="cls-7" d="M65.84,15.81h4.71v3.38a5.06,5.06,0,0,1,4.65-3.63,3.36,3.36,0,0,1,.57,0v4.82a5.22,5.22,0,0,0-1-.08c-2.72,0-4,1.73-4,4.4v5.67H65.84Z"/><path class="cls-7" d="M85.72,15.47c4.62,0,8.31,3.09,8.31,7.69s-3.69,7.6-8.29,7.6-8.28-3-8.28-7.6,3.69-7.69,8.26-7.69m0,11.2a3.3,3.3,0,0,0,3.32-3.51,3.33,3.33,0,1,0-6.63,0,3.3,3.3,0,0,0,3.31,3.51"/><path class="cls-7" d="M154.07,21.32h.42v-.26c0-1.22-1-1.62-2.07-1.62a7.72,7.72,0,0,0-4,1.39l-1.7-3.46a11.29,11.29,0,0,1,6.18-1.9c4,0,6.53,2.24,6.53,6v9h-4.48V28.63a5.38,5.38,0,0,1-4.34,2.13,4.47,4.47,0,0,1-4.77-4.45c0-3.92,4.65-5,8.26-5m-2,5.78a2.67,2.67,0,0,0,2.5-2.58v-.4h-.46c-1.5,0-3.43.4-3.43,1.73a1.25,1.25,0,0,0,1.39,1.25"/><polygon class="cls-8" points="181.67 10.27 180.36 10.27 174.5 19.22 175.15 20.24 181.2 11 181.67 10.27"/><polygon class="cls-9" points="178.85 10.27 173.75 18.06 174.32 18.95 180 10.27 178.85 10.27"/><polygon class="cls-10" points="177.38 10.27 173.01 16.93 173.58 17.81 178.52 10.27 177.38 10.27"/><polygon class="cls-11" points="175.68 10.27 173.5 13.6 172.17 15.63 172.83 16.65 177.01 10.27 175.68 10.27"/><polygon class="cls-12" points="174.5 19.22 175.15 20.24 176.57 18.06 175.91 17.05 174.5 19.22"/><polygon class="cls-13" points="174.32 18.95 175.74 16.78 175.16 15.89 173.75 18.06 174.32 18.95"/><polygon class="cls-14" points="173.58 17.81 175 15.64 174.43 14.76 173.01 16.93 173.58 17.81"/><polygon class="cls-15" points="172.17 15.63 172.83 16.65 174.25 14.47 173.59 13.45 172.82 14.63 172.17 15.63"/><polygon class="cls-7" points="168.72 10.29 162.51 10.29 169.05 20.4 162.24 30.83 168.31 30.83 172.06 25.05 175.79 30.83 182 30.83 175.17 20.26 172.16 15.62 168.72 10.29"/><rect class="cls-7" x="112.62" y="15.81" width="4.91" height="14.61"/><rect class="cls-7" x="112.68" y="10.14" width="4.8" height="3.83"/><path class="cls-7" d="M120.94,16h4.92v1.92A5.15,5.15,0,0,1,130,15.65a4.3,4.3,0,0,1,4,2.28,5.87,5.87,0,0,1,4.68-2.28c3,0,4.79,1.87,4.79,5.13v9.8h-4.92V22.36c0-1.53-.75-2.33-1.91-2.33s-2,.8-2,2.33v8.22h-4.92V22.36c0-1.53-.75-2.33-1.92-2.33s-2,.8-2,2.33v8.22h-4.92Z"/><polygon class="cls-7" points="109.91 30.41 104.91 23 109.8 15.82 104.38 15.82 102.21 19 100.06 15.82 94.53 15.82 99.44 23.07 94.45 30.41 99.85 30.41 102.14 27.06 104.41 30.41 109.91 30.41"/></svg>