<svg id="Layer_1" data-name="Layer 1" xmlns="http://www.w3.org/2000/svg" viewBox="0 0 182 54"><defs><style>.cls-1{fill:#2aa0b8;}.cls-2,.cls-7{fill:#f06622;}.cls-2,.cls-3,.cls-4,.cls-5{fill-rule:evenodd;}.cls-10,.cls-3{fill:#79b5e2;}.cls-4,.cls-9{fill:#1cb4ab;}.cls-5,.cls-8{fill:#f2a91d;}.cls-6{fill:#121212;}.cls-11{fill:#cd4f27;}.cls-12{fill:#c6862b;}.cls-13{fill:#009f90;}.cls-14{fill:#488ebe;}</style></defs><title>logo-proximax-sirius-explorer-proximax-sirius-explorer</title><path class="cls-1" d="M73.07,38.54a.65.65,0,0,1-.18.21.41.41,0,0,1-.25.07.61.61,0,0,1-.37-.16c-.14-.1-.32-.22-.54-.35A4.05,4.05,0,0,0,71,38a3.86,3.86,0,0,0-2.2,0,2.29,2.29,0,0,0-.78.45,1.93,1.93,0,0,0-.48.66,2.08,2.08,0,0,0-.16.83,1.5,1.5,0,0,0,.28.94,2.41,2.41,0,0,0,.73.64,6.25,6.25,0,0,0,1,.45l1.19.4c.41.14.8.3,1.19.47a4,4,0,0,1,1,.66,3,3,0,0,1,.73,1,3.14,3.14,0,0,1,.28,1.41,4.62,4.62,0,0,1-.3,1.67,3.85,3.85,0,0,1-.88,1.35,4.12,4.12,0,0,1-1.43.91,5.22,5.22,0,0,1-1.92.33,5.83,5.83,0,0,1-2.39-.48,5.51,5.51,0,0,1-1.84-1.29l.52-.86a.81.81,0,0,1,.19-.18.4.4,0,0,1,.24-.07.75.75,0,0,1,.45.21,7.18,7.18,0,0,0,.64.47,4.63,4.63,0,0,0,.92.47,3.71,3.71,0,0,0,1.33.21,3.49,3.49,0,0,0,1.16-.18,2.5,2.5,0,0,0,.86-.5,2.11,2.11,0,0,0,.54-.78,2.53,2.53,0,0,0,.19-1,1.75,1.75,0,0,0-.27-1,2.23,2.23,0,0,0-.74-.65,4.64,4.64,0,0,0-1-.45l-1.19-.38c-.4-.13-.8-.28-1.19-.45a3.94,3.94,0,0,1-1-.66,3.05,3.05,0,0,1-.73-1A3.57,3.57,0,0,1,65.63,40a3.48,3.48,0,0,1,.28-1.38,3.55,3.55,0,0,1,.81-1.19,3.82,3.82,0,0,1,1.3-.83,4.76,4.76,0,0,1,1.79-.31,5.73,5.73,0,0,1,2.07.36,4.86,4.86,0,0,1,1.63,1Z"/><path class="cls-1" d="M78.12,37.39a1,1,0,0,1-.1.46,1.22,1.22,0,0,1-.26.38,1.42,1.42,0,0,1-.38.26,1.23,1.23,0,0,1-.47.09,1.13,1.13,0,0,1-.45-.09,1.42,1.42,0,0,1-.38-.26,1.22,1.22,0,0,1-.26-.38,1.18,1.18,0,0,1-.09-.46,1.27,1.27,0,0,1,.09-.47,1.25,1.25,0,0,1,.64-.64,1,1,0,0,1,.45-.1,1.07,1.07,0,0,1,.47.1,1.25,1.25,0,0,1,.64.64A1.1,1.1,0,0,1,78.12,37.39Zm-.38,3V50H76.07V40.39Z"/><path class="cls-1" d="M80.71,50V40.39h1a.6.6,0,0,1,.38.1.68.68,0,0,1,.14.36l.11,1.49a4.52,4.52,0,0,1,1.21-1.56,2.71,2.71,0,0,1,1.7-.56,2.6,2.6,0,0,1,.71.09,2.3,2.3,0,0,1,.6.25l-.22,1.26a.28.28,0,0,1-.29.23A1.53,1.53,0,0,1,85.6,42a2.49,2.49,0,0,0-.76-.09,2.16,2.16,0,0,0-1.47.51,3.79,3.79,0,0,0-1,1.48V50Z"/><path class="cls-1" d="M90.56,37.39a1.19,1.19,0,0,1-.1.46,1.46,1.46,0,0,1-.27.38,1.28,1.28,0,0,1-.38.26,1.18,1.18,0,0,1-.46.09,1.14,1.14,0,0,1-.46-.09,1.25,1.25,0,0,1-.64-.64,1.18,1.18,0,0,1-.09-.46,1.27,1.27,0,0,1,.09-.47,1.42,1.42,0,0,1,.26-.38,1.22,1.22,0,0,1,.38-.26,1,1,0,0,1,.46-.1,1,1,0,0,1,.46.1,1.12,1.12,0,0,1,.38.26,1.46,1.46,0,0,1,.27.38A1.28,1.28,0,0,1,90.56,37.39Zm-.38,3V50H88.5V40.39Z"/><path class="cls-1" d="M94.59,40.39v6.1a2.52,2.52,0,0,0,.5,1.67,1.87,1.87,0,0,0,1.51.6A2.93,2.93,0,0,0,98,48.41a4.49,4.49,0,0,0,1.2-1v-7h1.68V50h-1a.44.44,0,0,1-.46-.35l-.13-1a5.23,5.23,0,0,1-1.39,1.11,3.69,3.69,0,0,1-1.78.42,3.5,3.5,0,0,1-1.38-.26,2.73,2.73,0,0,1-1-.73A3.13,3.13,0,0,1,93.12,48a5,5,0,0,1-.21-1.48v-6.1Z"/><path class="cls-1" d="M109.1,42a.37.37,0,0,1-.35.2.65.65,0,0,1-.32-.1c-.12-.07-.26-.15-.43-.23a4.74,4.74,0,0,0-.62-.24,3,3,0,0,0-.85-.11,2.6,2.6,0,0,0-.77.11,2,2,0,0,0-.58.3,1.25,1.25,0,0,0-.36.44,1.13,1.13,0,0,0-.13.54.89.89,0,0,0,.21.61,1.77,1.77,0,0,0,.56.43,5.89,5.89,0,0,0,.79.32c.3.09.6.18.91.29s.62.22.92.34a3.84,3.84,0,0,1,.79.47,2.14,2.14,0,0,1,.56.7,2.12,2.12,0,0,1,.21,1,3.23,3.23,0,0,1-.23,1.22,2.72,2.72,0,0,1-.7,1,3.37,3.37,0,0,1-1.13.64,4.63,4.63,0,0,1-1.55.24,4.75,4.75,0,0,1-1.81-.33,4.49,4.49,0,0,1-1.38-.83l.4-.64a.64.64,0,0,1,.17-.19.49.49,0,0,1,.28-.07.72.72,0,0,1,.36.13l.45.3a4.18,4.18,0,0,0,.66.29,2.87,2.87,0,0,0,1,.13,2.47,2.47,0,0,0,.86-.13,1.7,1.7,0,0,0,.61-.34,1.36,1.36,0,0,0,.37-.5,1.53,1.53,0,0,0,.12-.6,1,1,0,0,0-.22-.66,1.8,1.8,0,0,0-.56-.44,4.07,4.07,0,0,0-.79-.32l-.92-.29c-.31-.1-.62-.22-.92-.35a3.47,3.47,0,0,1-.79-.48,2.19,2.19,0,0,1-.56-.72,2.26,2.26,0,0,1-.22-1.05,2.58,2.58,0,0,1,.23-1,2.68,2.68,0,0,1,.66-.89,3.35,3.35,0,0,1,1.07-.6,4.26,4.26,0,0,1,1.44-.23,4.5,4.5,0,0,1,1.69.3,4.09,4.09,0,0,1,1.3.81Z"/><path class="cls-1" d="M120.41,36.43v1.49h-6.49v4.49h5.26v1.43h-5.26v4.62h6.49V50h-8.33V36.43Z"/><path class="cls-1" d="M125,45.05l-3.22-4.66h1.61a.53.53,0,0,1,.31.07.53.53,0,0,1,.17.19l2.34,3.58a2.07,2.07,0,0,1,.24-.53l2.06-3a1,1,0,0,1,.19-.21.36.36,0,0,1,.23-.08h1.55L127.28,45l3.35,5H129a.49.49,0,0,1-.33-.11.88.88,0,0,1-.19-.24l-2.41-3.75a1.67,1.67,0,0,1-.19.49l-2.23,3.26a1.59,1.59,0,0,1-.2.24.42.42,0,0,1-.3.11h-1.5Z"/><path class="cls-1" d="M132.29,53.18V40.39h1a.44.44,0,0,1,.46.35l.14,1.13a5.32,5.32,0,0,1,1.4-1.2,3.57,3.57,0,0,1,1.81-.45,3.43,3.43,0,0,1,1.49.32,3.12,3.12,0,0,1,1.15.93,4.53,4.53,0,0,1,.72,1.53,7.91,7.91,0,0,1,.26,2.11,6.49,6.49,0,0,1-.29,2,4.63,4.63,0,0,1-.81,1.58,3.88,3.88,0,0,1-1.29,1.05,3.93,3.93,0,0,1-1.74.38,3.63,3.63,0,0,1-1.51-.29A3.44,3.44,0,0,1,134,49v4.22Zm4.26-11.6a2.71,2.71,0,0,0-1.44.38A4.18,4.18,0,0,0,134,43v4.63a2.74,2.74,0,0,0,1,.87,2.85,2.85,0,0,0,1.23.26,2.41,2.41,0,0,0,2-1,4.47,4.47,0,0,0,.72-2.72,6.9,6.9,0,0,0-.16-1.61,3,3,0,0,0-.48-1.09,1.83,1.83,0,0,0-.76-.63A2.63,2.63,0,0,0,136.55,41.58Z"/><path class="cls-1" d="M144.58,36.05V50H142.9V36.05Z"/><path class="cls-1" d="M151.41,40.24a5,5,0,0,1,1.89.35,3.91,3.91,0,0,1,1.43,1,4.41,4.41,0,0,1,.91,1.55,6.22,6.22,0,0,1,.31,2,6.16,6.16,0,0,1-.31,2,4.41,4.41,0,0,1-.91,1.55,3.91,3.91,0,0,1-1.43,1,5.45,5.45,0,0,1-3.79,0,3.91,3.91,0,0,1-1.43-1,4.29,4.29,0,0,1-.92-1.55,6.15,6.15,0,0,1-.32-2,6.22,6.22,0,0,1,.32-2,4.29,4.29,0,0,1,.92-1.55,3.91,3.91,0,0,1,1.43-1A5,5,0,0,1,151.41,40.24Zm0,8.53a2.46,2.46,0,0,0,2.11-1,4.42,4.42,0,0,0,.7-2.65,4.49,4.49,0,0,0-.7-2.66,2.46,2.46,0,0,0-2.11-.95,2.85,2.85,0,0,0-1.25.25,2.32,2.32,0,0,0-.88.7,3.16,3.16,0,0,0-.53,1.14,5.94,5.94,0,0,0-.17,1.52,5.84,5.84,0,0,0,.17,1.52,3,3,0,0,0,.53,1.13,2.23,2.23,0,0,0,.88.7A2.85,2.85,0,0,0,151.41,48.77Z"/><path class="cls-1" d="M158,50V40.39h1a.6.6,0,0,1,.38.1.68.68,0,0,1,.14.36l.11,1.49a4.52,4.52,0,0,1,1.21-1.56,2.88,2.88,0,0,1,2.42-.47,2.38,2.38,0,0,1,.59.25l-.22,1.26a.28.28,0,0,1-.29.23,1.53,1.53,0,0,1-.41-.09,2.49,2.49,0,0,0-.76-.09,2.19,2.19,0,0,0-1.47.51,3.79,3.79,0,0,0-1,1.48V50Z"/><path class="cls-1" d="M169.42,40.24a4.27,4.27,0,0,1,1.58.29,3.55,3.55,0,0,1,1.25.83,3.71,3.71,0,0,1,.83,1.34,5.09,5.09,0,0,1,.3,1.81,1,1,0,0,1-.09.53c0,.09-.16.13-.32.13h-6.36a5.57,5.57,0,0,0,.25,1.58,3.26,3.26,0,0,0,.62,1.12,2.58,2.58,0,0,0,.94.67,3.24,3.24,0,0,0,1.23.22,3.5,3.5,0,0,0,1.09-.15,4.65,4.65,0,0,0,.79-.31c.22-.12.4-.22.55-.32a.74.74,0,0,1,.38-.15.38.38,0,0,1,.32.16l.47.62a2.91,2.91,0,0,1-.74.65,4.47,4.47,0,0,1-.93.46,5.89,5.89,0,0,1-1,.27,6.29,6.29,0,0,1-1.05.09,4.77,4.77,0,0,1-1.83-.34,4.05,4.05,0,0,1-1.44-1,4.45,4.45,0,0,1-1-1.6A6.61,6.61,0,0,1,165,45a5.69,5.69,0,0,1,.31-1.87,4.45,4.45,0,0,1,.88-1.51,4.15,4.15,0,0,1,1.41-1A4.62,4.62,0,0,1,169.42,40.24Zm0,1.24a2.55,2.55,0,0,0-1.91.7,3.27,3.27,0,0,0-.87,2h5.2a3.59,3.59,0,0,0-.16-1.07,2.45,2.45,0,0,0-.47-.84,2.09,2.09,0,0,0-.76-.55A2.56,2.56,0,0,0,169.45,41.48Z"/><path class="cls-1" d="M175.52,50V40.39h1a.6.6,0,0,1,.38.1.68.68,0,0,1,.14.36l.11,1.49a4.43,4.43,0,0,1,1.22-1.56,2.69,2.69,0,0,1,1.69-.56,2.73,2.73,0,0,1,.72.09,2.38,2.38,0,0,1,.59.25l-.22,1.26a.28.28,0,0,1-.29.23,1.4,1.4,0,0,1-.4-.09,2.61,2.61,0,0,0-.77-.09,2.19,2.19,0,0,0-1.47.51,3.79,3.79,0,0,0-1,1.48V50Z"/><path class="cls-2" d="M26.47,5.06c5.7-1.62,8.12-1.2,12.57-.74A44.61,44.61,0,0,0,20.08,0c-1,0-1.95,0-2.92.1a17.85,17.85,0,0,1,3.93,3c.68.69,2.07,2.31,3,2.48a6.31,6.31,0,0,0,2.35-.48"/><path class="cls-3" d="M33.54,28.38c-.5-2.2-1.15-4.38-1.83-6.47-.35-1.1-.74-2.18-1.12-3.26s-.79-2.11-1.22-3.15C27.47,11,27.67,11,31.15,9c2.36-1.21,6.07-2.91,8.73-2.78l.28,0a40.52,40.52,0,0,1-6.62,22.13"/><path class="cls-4" d="M4.26,24.28c2.26-1.79,4.79-3.48,6.63-4.65a77.6,77.6,0,0,1,7.59-4.12,8.93,8.93,0,0,1,2.66-1,2.09,2.09,0,0,1,.83.09c.83.36,2.23,2.61,2.23,2.61l0,0c.25.36.47.74.73,1.1s.53.81.78,1.21c.37.6.73,1.2,1.09,1.81.58,1,1.21,2,1.73,3,.87,1.68,2.08,4.06,3.12,6.61a40.41,40.41,0,0,1-11,9.83l-.58.35-.58-.35A40.5,40.5,0,0,1,4.26,24.28"/><path class="cls-5" d="M13,.6c.21.22.4.45.58.67.4.47.79,1,1.16,1.48A16.6,16.6,0,0,1,16,4.51c.53,1,1.65,2.41,2,3.3a1.71,1.71,0,0,1,.12.86,1.15,1.15,0,0,1-.41.61c-.44.35-.65.47-1,.73-1.62,1.19-3.17,2.46-4.74,3.71-1.76,1.4-3.51,3-5.13,4.61-1.11,1.08-2.36,2.38-3.53,3.75A40.29,40.29,0,0,1,0,5.54V4.85l.61-.3A45.59,45.59,0,0,1,13,.6"/><path class="cls-6" d="M48.33,10.27h8.54c4,0,6.7,2.93,6.7,7.07s-2.7,7.13-6.7,7.13H53.36v6.36h-5Zm7.51,9.89a2.5,2.5,0,0,0,2.61-2.82c0-1.64-.86-2.76-2.53-2.76H53.36v5.58Z"/><path class="cls-6" d="M65.84,15.81h4.71v3.38a5.06,5.06,0,0,1,4.65-3.63,3.36,3.36,0,0,1,.57,0v4.82a5.22,5.22,0,0,0-1-.08c-2.72,0-4,1.73-4,4.4v5.67H65.84Z"/><path class="cls-6" d="M85.72,15.47c4.62,0,8.31,3.09,8.31,7.69s-3.69,7.6-8.29,7.6-8.28-3-8.28-7.6,3.69-7.69,8.26-7.69m0,11.2a3.3,3.3,0,0,0,3.32-3.51,3.33,3.33,0,1,0-6.63,0,3.3,3.3,0,0,0,3.31,3.51"/><path class="cls-6" d="M154.07,21.32h.42v-.26c0-1.22-1-1.62-2.07-1.62a7.72,7.72,0,0,0-4,1.39l-1.7-3.46a11.29,11.29,0,0,1,6.18-1.9c4,0,6.53,2.24,6.53,6v9h-4.48V28.63a5.38,5.38,0,0,1-4.34,2.13,4.47,4.47,0,0,1-4.77-4.45c0-3.92,4.65-5,8.26-5m-2,5.78a2.67,2.67,0,0,0,2.5-2.58v-.4h-.46c-1.5,0-3.43.4-3.43,1.73a1.25,1.25,0,0,0,1.39,1.25"/><polygon class="cls-7" points="181.67 10.27 180.36 10.27 174.5 19.22 175.15 20.24 181.2 11 181.67 10.27"/><polygon class="cls-8" points="178.85 10.27 173.75 18.06 174.32 18.95 180 10.27 178.85 10.27"/><polygon class="cls-9" points="177.38 10.27 173.01 16.93 173.58 17.81 178.52 10.27 177.38 10.27"/><polygon class="cls-10" points="175.68 10.27 173.5 13.6 172.17 15.63 172.83 16.65 177.01 10.27 175.68 10.27"/><polygon class="cls-11" points="174.5 19.22 175.15 20.24 176.57 18.06 175.91 17.05 174.5 19.22"/><polygon class="cls-12" points="174.32 18.95 175.74 16.78 175.16 15.89 173.75 18.06 174.32 18.95"/><polygon class="cls-13" points="173.58 17.81 175 15.64 174.43 14.76 173.01 16.93 173.58 17.81"/><polygon class="cls-14" points="172.17 15.63 172.83 16.65 174.25 14.47 173.59 13.45 172.82 14.63 172.17 15.63"/><polygon class="cls-6" points="168.72 10.29 162.51 10.29 169.05 20.4 162.24 30.83 168.31 30.83 172.06 25.05 175.79 30.83 182 30.83 175.17 20.26 172.16 15.62 168.72 10.29"/><rect class="cls-6" x="112.62" y="15.81" width="4.91" height="14.61"/><rect class="cls-6" x="112.68" y="10.14" width="4.8" height="3.83"/><path class="cls-6" d="M120.94,16h4.92v1.92A5.15,5.15,0,0,1,130,15.65a4.3,4.3,0,0,1,4,2.28,5.87,5.87,0,0,1,4.68-2.28c3,0,4.79,1.87,4.79,5.13v9.8h-4.92V22.36c0-1.53-.75-2.33-1.91-2.33s-2,.8-2,2.33v8.22h-4.92V22.36c0-1.53-.75-2.33-1.92-2.33s-2,.8-2,2.33v8.22h-4.92Z"/><polygon class="cls-6" points="109.91 30.41 104.91 23 109.8 15.82 104.38 15.82 102.21 19 100.06 15.82 94.53 15.82 99.44 23.07 94.45 30.41 99.85 30.41 102.14 27.06 104.41 30.41 109.91 30.41"/></svg>