<svg id="Layer_1" data-name="Layer 1" xmlns="http://www.w3.org/2000/svg" viewBox="0 0 260 76"><defs><style>.cls-1{fill:#df4c49;}.cls-2,.cls-7{fill:#f06622;}.cls-2,.cls-3,.cls-4,.cls-5{fill-rule:evenodd;}.cls-10,.cls-3{fill:#79b5e2;}.cls-4,.cls-9{fill:#1cb4ab;}.cls-5,.cls-8{fill:#f2a91d;}.cls-6{fill:#121212;}.cls-11{fill:#cd4f27;}.cls-12{fill:#c6862b;}.cls-13{fill:#009f90;}.cls-14{fill:#488ebe;}</style></defs><title>logo-proximax-sirius-Artboard 1</title><path class="cls-1" d="M99.18,55.08a1.12,1.12,0,0,1-.26.3.56.56,0,0,1-.35.1.88.88,0,0,1-.53-.23,8,8,0,0,0-.77-.5,5.59,5.59,0,0,0-1.12-.51A4.84,4.84,0,0,0,94.57,54a4.59,4.59,0,0,0-1.55.24,3.18,3.18,0,0,0-1.13.64,2.56,2.56,0,0,0-.68,1A3.06,3.06,0,0,0,91,57a2.22,2.22,0,0,0,.4,1.34,3.6,3.6,0,0,0,1.05.91,8.05,8.05,0,0,0,1.48.65l1.7.58c.58.19,1.15.42,1.7.66a5.92,5.92,0,0,1,1.48.94,4.16,4.16,0,0,1,1,1.39,4.55,4.55,0,0,1,.4,2,6.45,6.45,0,0,1-.43,2.38,5.61,5.61,0,0,1-1.26,1.94,5.93,5.93,0,0,1-2,1.29,7.62,7.62,0,0,1-2.75.47,8.37,8.37,0,0,1-3.41-.68,8,8,0,0,1-2.64-1.84l.76-1.24a1,1,0,0,1,.26-.25.59.59,0,0,1,.34-.1,1.08,1.08,0,0,1,.65.3,9,9,0,0,0,.91.67,6.75,6.75,0,0,0,1.32.67,5.28,5.28,0,0,0,1.89.3,4.74,4.74,0,0,0,1.66-.26,3.39,3.39,0,0,0,1.23-.72,3.11,3.11,0,0,0,.78-1.11,3.7,3.7,0,0,0,.27-1.44,2.4,2.4,0,0,0-.4-1.44,3.24,3.24,0,0,0-1-.93,6.67,6.67,0,0,0-1.48-.64l-1.7-.54c-.58-.19-1.14-.4-1.7-.64a5.62,5.62,0,0,1-1.47-1,4.37,4.37,0,0,1-1-1.45,5.65,5.65,0,0,1,0-4.13,5.15,5.15,0,0,1,1.16-1.7A5.49,5.49,0,0,1,92,52.29a6.8,6.8,0,0,1,2.56-.45,8.19,8.19,0,0,1,3,.51,6.84,6.84,0,0,1,2.33,1.49Z"/><path class="cls-1" d="M106.4,53.43a1.63,1.63,0,0,1-.14.66,1.83,1.83,0,0,1-.38.54,2,2,0,0,1-.54.37,1.65,1.65,0,0,1-.66.13A1.59,1.59,0,0,1,104,55a1.78,1.78,0,0,1-.91-.91,1.62,1.62,0,0,1-.13-.66,1.74,1.74,0,0,1,.13-.67,1.9,1.9,0,0,1,.37-.55,1.79,1.79,0,0,1,.54-.37,1.59,1.59,0,0,1,.66-.13,1.65,1.65,0,0,1,.66.13,1.79,1.79,0,0,1,.54.37,1.71,1.71,0,0,1,.52,1.22Zm-.54,4.29V71.38h-2.4V57.72Z"/><path class="cls-1" d="M110.09,71.38V57.72h1.38a.76.76,0,0,1,.54.15.94.94,0,0,1,.2.51l.16,2.13a6.33,6.33,0,0,1,1.73-2.23,3.81,3.81,0,0,1,2.42-.8,4.1,4.1,0,0,1,1,.12,4.26,4.26,0,0,1,.85.36l-.31,1.79a.41.41,0,0,1-.42.34,1.93,1.93,0,0,1-.58-.13,3.91,3.91,0,0,0-1.09-.12,3.11,3.11,0,0,0-2.1.72,5.53,5.53,0,0,0-1.41,2.12v8.7Z"/><path class="cls-1" d="M124.16,53.43a1.48,1.48,0,0,1-.14.66,1.83,1.83,0,0,1-.38.54,1.73,1.73,0,0,1-.54.37,1.65,1.65,0,0,1-.66.13,1.54,1.54,0,0,1-.65-.13,1.73,1.73,0,0,1-.54-.37,1.79,1.79,0,0,1-.37-.54,1.63,1.63,0,0,1-.14-.66,1.75,1.75,0,0,1,.14-.67,1.72,1.72,0,0,1,.37-.55,1.58,1.58,0,0,1,.54-.37,1.54,1.54,0,0,1,.65-.13,1.65,1.65,0,0,1,.66.13,1.58,1.58,0,0,1,.54.37,1.75,1.75,0,0,1,.38.55A1.58,1.58,0,0,1,124.16,53.43Zm-.54,4.29V71.38h-2.39V57.72Z"/><path class="cls-1" d="M129.93,57.72v8.71a3.62,3.62,0,0,0,.72,2.4,2.66,2.66,0,0,0,2.15.85,4.16,4.16,0,0,0,2-.5,6.34,6.34,0,0,0,1.72-1.39V57.72h2.39V71.38h-1.42a.61.61,0,0,1-.65-.5l-.19-1.47a7.66,7.66,0,0,1-2,1.58,5.27,5.27,0,0,1-2.54.6,4.88,4.88,0,0,1-2-.37,4,4,0,0,1-1.44-1,4.67,4.67,0,0,1-.87-1.64,7.32,7.32,0,0,1-.29-2.11V57.72Z"/><path class="cls-1" d="M150.66,60a.53.53,0,0,1-.5.3,1,1,0,0,1-.46-.15l-.62-.33a6.69,6.69,0,0,0-.89-.34A4.3,4.3,0,0,0,147,59.3a3.68,3.68,0,0,0-1.09.15,2.83,2.83,0,0,0-.83.43,1.8,1.8,0,0,0-.52.62,1.61,1.61,0,0,0-.19.78,1.24,1.24,0,0,0,.31.87,2.53,2.53,0,0,0,.8.61,7,7,0,0,0,1.13.45l1.3.42c.45.15.88.31,1.3.49a4.72,4.72,0,0,1,1.13.68,3.12,3.12,0,0,1,.81,1,3.06,3.06,0,0,1,.3,1.41,4.32,4.32,0,0,1-.34,1.74,3.72,3.72,0,0,1-1,1.39,4.78,4.78,0,0,1-1.61.92,6.54,6.54,0,0,1-2.21.34,6.87,6.87,0,0,1-2.59-.46,6.53,6.53,0,0,1-2-1.2l.57-.91a.73.73,0,0,1,.25-.27.67.67,0,0,1,.39-.1,1,1,0,0,1,.52.19,7.46,7.46,0,0,0,.65.42,5.83,5.83,0,0,0,.93.42,4.39,4.39,0,0,0,1.37.19,3.47,3.47,0,0,0,1.22-.19,2.49,2.49,0,0,0,.88-.49,1.89,1.89,0,0,0,.52-.71,2.29,2.29,0,0,0,.17-.87,1.39,1.39,0,0,0-.31-.93,2.6,2.6,0,0,0-.8-.64,6.77,6.77,0,0,0-1.14-.45l-1.3-.42a12.12,12.12,0,0,1-1.31-.49,4.33,4.33,0,0,1-1.14-.69,3.14,3.14,0,0,1-.8-1,3.38,3.38,0,0,1-.3-1.49,3.63,3.63,0,0,1,1.26-2.77,4.52,4.52,0,0,1,1.52-.87,6,6,0,0,1,2.07-.33,6.4,6.4,0,0,1,2.42.43,5.75,5.75,0,0,1,1.85,1.16Z"/><path class="cls-1" d="M172,52.06v2.13h-9.27V60.6h7.51v2h-7.51v6.6H172v2.13h-11.9V52.06Z"/><path class="cls-1" d="M178.6,64.38,174,57.72h2.31a.81.81,0,0,1,.43.09,1.05,1.05,0,0,1,.24.27l3.34,5.13a3.46,3.46,0,0,1,.35-.76l2.94-4.31a1.71,1.71,0,0,1,.27-.31.53.53,0,0,1,.34-.11h2.21l-4.6,6.52,4.79,7.14h-2.31a.66.66,0,0,1-.46-.16,1.27,1.27,0,0,1-.28-.34l-3.44-5.36a2.24,2.24,0,0,1-.28.71l-3.18,4.65a3.24,3.24,0,0,1-.29.34.57.57,0,0,1-.42.16h-2.15Z"/><path class="cls-1" d="M189,76V57.72h1.43a.61.61,0,0,1,.64.5l.21,1.62a7.41,7.41,0,0,1,2-1.72,5.1,5.1,0,0,1,2.59-.64,5,5,0,0,1,2.13.45,4.34,4.34,0,0,1,1.63,1.33,6.37,6.37,0,0,1,1,2.19,11.45,11.45,0,0,1,.36,3,9.4,9.4,0,0,1-.4,2.81,6.85,6.85,0,0,1-1.16,2.25,5.4,5.4,0,0,1-1.85,1.5,5.54,5.54,0,0,1-2.48.54,5.08,5.08,0,0,1-2.16-.41A4.92,4.92,0,0,1,191.39,70v6Zm6.08-16.58A3.88,3.88,0,0,0,193,60a5.77,5.77,0,0,0-1.62,1.52v6.61a3.82,3.82,0,0,0,1.45,1.25,4.16,4.16,0,0,0,1.76.36,3.43,3.43,0,0,0,2.92-1.36,6.38,6.38,0,0,0,1-3.88,9.57,9.57,0,0,0-.23-2.29,4.65,4.65,0,0,0-.68-1.57,2.68,2.68,0,0,0-1.09-.9A3.64,3.64,0,0,0,195.07,59.42Z"/><path class="cls-1" d="M206.54,51.52V71.38h-2.4V51.52Z"/><path class="cls-1" d="M216.29,57.5A7.11,7.11,0,0,1,219,58a5.68,5.68,0,0,1,2,1.42,6.12,6.12,0,0,1,1.3,2.22,9.6,9.6,0,0,1,0,5.81,6.08,6.08,0,0,1-1.3,2.21,5.66,5.66,0,0,1-2,1.41,7.71,7.71,0,0,1-5.41,0,5.7,5.7,0,0,1-2.05-1.41,6.09,6.09,0,0,1-1.31-2.21,9.4,9.4,0,0,1,0-5.81,6.14,6.14,0,0,1,1.31-2.22A5.72,5.72,0,0,1,213.59,58,7.09,7.09,0,0,1,216.29,57.5Zm0,12.19a3.5,3.5,0,0,0,3-1.35,6.28,6.28,0,0,0,1-3.79,6.31,6.31,0,0,0-1-3.8,3.48,3.48,0,0,0-3-1.36,4.28,4.28,0,0,0-1.78.35,3.44,3.44,0,0,0-1.26,1,4.63,4.63,0,0,0-.75,1.63,8.51,8.51,0,0,0-.25,2.17,8.4,8.4,0,0,0,.25,2.17,4.67,4.67,0,0,0,.75,1.62,3.42,3.42,0,0,0,1.26,1A4.28,4.28,0,0,0,216.29,69.69Z"/><path class="cls-1" d="M225.75,71.38V57.72h1.38a.76.76,0,0,1,.54.15.94.94,0,0,1,.2.51l.16,2.13a6.33,6.33,0,0,1,1.73-2.23,3.81,3.81,0,0,1,2.42-.8,4.1,4.1,0,0,1,1,.12,4,4,0,0,1,.85.36l-.31,1.79a.41.41,0,0,1-.42.34,1.93,1.93,0,0,1-.58-.13,3.91,3.91,0,0,0-1.09-.12,3.11,3.11,0,0,0-2.1.72,5.53,5.53,0,0,0-1.41,2.12v8.7Z"/><path class="cls-1" d="M242,57.5a6.23,6.23,0,0,1,2.27.41,5.11,5.11,0,0,1,1.79,1.19A5.61,5.61,0,0,1,247.26,61a7.41,7.41,0,0,1,.42,2.59,1.61,1.61,0,0,1-.12.76.51.51,0,0,1-.46.18H238a7.5,7.5,0,0,0,.35,2.26,4.45,4.45,0,0,0,.89,1.59,3.56,3.56,0,0,0,1.35,1,4.62,4.62,0,0,0,1.75.32,5.17,5.17,0,0,0,1.56-.21A7.65,7.65,0,0,0,245,69c.32-.16.58-.32.79-.45a1,1,0,0,1,.54-.21.5.5,0,0,1,.46.23l.68.87a4.63,4.63,0,0,1-1.07.94,6.57,6.57,0,0,1-1.33.65,8.7,8.7,0,0,1-1.46.39,9.45,9.45,0,0,1-1.49.12,7.09,7.09,0,0,1-2.61-.47,5.66,5.66,0,0,1-2.06-1.41,6.44,6.44,0,0,1-1.36-2.28,9.4,9.4,0,0,1-.48-3.13,7.79,7.79,0,0,1,.44-2.67,6.32,6.32,0,0,1,1.26-2.15,5.84,5.84,0,0,1,2-1.43A6.69,6.69,0,0,1,242,57.5Zm.06,1.77a3.68,3.68,0,0,0-2.74,1,4.7,4.7,0,0,0-1.24,2.79h7.43a4.91,4.91,0,0,0-.23-1.53,3.36,3.36,0,0,0-.68-1.2,2.91,2.91,0,0,0-1.08-.78A3.59,3.59,0,0,0,242.08,59.27Z"/><path class="cls-1" d="M250.74,71.38V57.72h1.38a.76.76,0,0,1,.54.15,1,1,0,0,1,.2.51l.16,2.13a6.22,6.22,0,0,1,1.73-2.23,3.79,3.79,0,0,1,2.42-.8,4,4,0,0,1,1,.12A3.81,3.81,0,0,1,259,58l-.31,1.79a.4.4,0,0,1-.41.34,1.93,1.93,0,0,1-.58-.13,3.94,3.94,0,0,0-1.1-.12,3.1,3.1,0,0,0-2.09.72,5.53,5.53,0,0,0-1.41,2.12v8.7Z"/><path class="cls-2" d="M37.81,7.23c8.14-2.32,11.6-1.72,18-1.06A63.64,63.64,0,0,0,28.68,0c-1.39,0-2.79.05-4.17.14a25.25,25.25,0,0,1,5.62,4.23c1,1,3,3.3,4.32,3.54a8.75,8.75,0,0,0,3.36-.68"/><path class="cls-3" d="M47.91,40.56c-.7-3.14-1.64-6.26-2.61-9.25-.5-1.57-1.06-3.11-1.6-4.66s-1.13-3-1.74-4.5c-2.72-6.38-2.43-6.41,2.54-9.28,3.37-1.72,8.68-4.15,12.47-4a2.6,2.6,0,0,1,.4,0,57.87,57.87,0,0,1-9.46,31.62"/><path class="cls-4" d="M6.09,34.69c3.23-2.54,6.84-5,9.47-6.63a110.68,110.68,0,0,1,10.83-5.9,12.91,12.91,0,0,1,3.81-1.4,2.67,2.67,0,0,1,1.18.12c1.19.51,3.19,3.73,3.19,3.73l0,0c.36.52.68,1.07,1.06,1.58s.76,1.15,1.11,1.72c.52.86,1,1.73,1.55,2.6.83,1.4,1.73,2.87,2.48,4.31,1.24,2.4,3,5.81,4.45,9.45a57.74,57.74,0,0,1-15.73,14l-.83.5-.82-.5A57.73,57.73,0,0,1,6.09,34.69"/><path class="cls-5" d="M18.52.85q.45.5.84,1c.57.68,1.12,1.4,1.66,2.12a26,26,0,0,1,1.79,2.51c.76,1.38,2.36,3.45,2.84,4.72a2.54,2.54,0,0,1,.18,1.24,1.67,1.67,0,0,1-.59.86c-.62.51-.92.67-1.45,1.05C21.47,16,19.26,17.82,17,19.6c-2.51,2-5,4.36-7.32,6.59-1.59,1.55-3.38,3.4-5,5.36A57.69,57.69,0,0,1,0,7.91v-1L.9,6.51A64.78,64.78,0,0,1,18.52.85"/><path class="cls-6" d="M69,14.67h12.2c5.72,0,9.58,4.19,9.58,10.11S87,35,81.24,35h-5v9.09H69ZM79.76,28.81c2.51,0,3.74-1.69,3.74-4s-1.23-3.94-3.61-3.94H76.23v8Z"/><path class="cls-6" d="M94.06,22.59h6.72v4.83a7.25,7.25,0,0,1,6.65-5.19,5.17,5.17,0,0,1,.81.08V29.2a6.69,6.69,0,0,0-1.42-.12c-3.89,0-5.76,2.47-5.76,6.28v8.11h-7Z"/><path class="cls-6" d="M122.45,22.11c6.61,0,11.87,4.42,11.87,11S129.06,44,122.49,44s-11.83-4.34-11.83-10.87,5.27-11,11.79-11m0,16a4.71,4.71,0,0,0,4.74-5,4.76,4.76,0,1,0-9.48,0,4.72,4.72,0,0,0,4.74,5"/><path class="cls-6" d="M220.09,30.46h.61v-.37c0-1.74-1.42-2.31-3-2.31a10.88,10.88,0,0,0-5.75,2l-2.43-4.95a16.13,16.13,0,0,1,8.83-2.71c5.76,0,9.32,3.2,9.32,8.51V43.47h-6.4V40.92a7.68,7.68,0,0,1-6.2,3c-4,0-6.81-2.76-6.81-6.37,0-5.59,6.65-7.13,11.79-7.13m-2.87,8.27A3.82,3.82,0,0,0,220.78,35v-.57h-.65c-2.14,0-4.9.57-4.9,2.47a1.79,1.79,0,0,0,2,1.79"/><polygon class="cls-7" points="259.53 14.67 257.65 14.67 249.28 27.47 250.22 28.92 258.85 15.72 259.53 14.67"/><polygon class="cls-8" points="255.5 14.67 248.21 25.81 249.03 27.08 257.15 14.67 255.5 14.67"/><polygon class="cls-9" points="253.39 14.67 247.16 24.2 247.98 25.45 255.03 14.67 253.39 14.67"/><polygon class="cls-10" points="250.97 14.67 247.85 19.44 245.96 22.34 246.9 23.79 252.87 14.67 250.97 14.67"/><polygon class="cls-11" points="249.28 27.47 250.22 28.92 252.24 25.81 251.31 24.36 249.28 27.47"/><polygon class="cls-12" points="249.03 27.08 251.06 23.98 250.24 22.71 248.21 25.81 249.03 27.08"/><polygon class="cls-13" points="247.98 25.45 250 22.35 249.19 21.09 247.16 24.2 247.98 25.45"/><polygon class="cls-14" points="245.96 22.34 246.9 23.79 248.93 20.68 247.99 19.22 246.89 20.9 245.96 22.34"/><polygon class="cls-6" points="241.03 14.71 232.16 14.71 241.5 29.15 231.77 44.06 240.44 44.06 245.8 35.8 251.13 44.06 260 44.06 250.24 28.95 245.95 22.32 241.03 14.71"/><rect class="cls-6" x="160.89" y="22.59" width="7.01" height="20.87"/><rect class="cls-6" x="160.97" y="14.49" width="6.85" height="5.47"/><path class="cls-6" d="M172.77,22.81h7v2.74a7.34,7.34,0,0,1,5.95-3.18,6.11,6.11,0,0,1,5.77,3.26,8.43,8.43,0,0,1,6.7-3.26c4.25,0,6.84,2.66,6.84,7.33v14h-7V32c0-2.18-1.07-3.33-2.73-3.33s-2.89,1.15-2.89,3.33V43.69h-7V32c0-2.18-1.07-3.33-2.74-3.33S179.8,29.77,179.8,32V43.69h-7Z"/><polygon class="cls-6" points="157.01 43.46 149.87 32.86 156.86 22.6 149.11 22.6 146.02 27.16 142.95 22.6 135.05 22.6 142.06 32.97 134.93 43.46 142.64 43.46 145.91 38.66 149.15 43.46 157.01 43.46"/></svg>