<svg id="Layer_1" data-name="Layer 1" xmlns="http://www.w3.org/2000/svg" viewBox="0 0 270 76"><defs><style>.cls-1{fill:#121212;}.cls-11,.cls-2{fill:#ee6723;}.cls-14,.cls-3{fill:#f1a81f;}.cls-13,.cls-4{fill:#1bb2a9;}.cls-12,.cls-5{fill:#7ab4e2;}.cls-6{fill:#cd4f28;}.cls-7{fill:#c4852b;}.cls-8{fill:#009f8f;}.cls-9{fill:#478dbe;}.cls-10{fill:#666667;}.cls-11,.cls-12,.cls-13,.cls-14{fill-rule:evenodd;}</style></defs><title>Artboard 1</title><path class="cls-1" d="M71.7,15.23H84.37c5.93,0,9.94,4.35,9.94,10.5s-4,10.58-9.94,10.58H79.16v9.43H71.7ZM82.83,29.91c2.61,0,3.89-1.75,3.89-4.18s-1.28-4.1-3.76-4.1h-3.8v8.28Z"/><path class="cls-1" d="M97.67,23.46h7v5a7.52,7.52,0,0,1,6.9-5.38,5.44,5.44,0,0,1,.84.08v7.16a6.42,6.42,0,0,0-1.47-.13c-4,0-6,2.57-6,6.52v8.42H97.67Z"/><path class="cls-1" d="M127.16,23c6.86,0,12.33,4.59,12.33,11.41S134,45.63,127.2,45.63s-12.29-4.5-12.29-11.27S120.39,23,127.16,23m0,16.62a4.89,4.89,0,0,0,4.93-5.21c0-3.29-2.27-5.35-4.93-5.35s-4.92,2.06-4.92,5.35a4.89,4.89,0,0,0,4.92,5.21"/><path class="cls-1" d="M228.56,31.62h.63v-.38c0-1.81-1.47-2.4-3.07-2.4a11.41,11.41,0,0,0-6,2.06l-2.52-5.13A16.7,16.7,0,0,1,226.79,23c6,0,9.68,3.32,9.68,8.84V45.13h-6.65V42.48a7.94,7.94,0,0,1-6.44,3.15c-4.16,0-7.07-2.86-7.07-6.6,0-5.81,6.91-7.41,12.25-7.41m-3,8.59a4,4,0,0,0,3.7-3.84v-.58h-.67c-2.23,0-5.09.58-5.09,2.56a1.85,1.85,0,0,0,2.06,1.86"/><polygon class="cls-2" points="269.51 15.23 267.56 15.23 258.87 28.52 259.84 30.02 268.81 16.32 269.51 15.23"/><polygon class="cls-3" points="265.32 15.23 257.75 26.8 258.61 28.11 267.04 15.23 265.32 15.23"/><polygon class="cls-4" points="263.14 15.23 256.67 25.12 257.51 26.42 264.84 15.23 263.14 15.23"/><polygon class="cls-5" points="260.62 15.23 257.38 20.18 255.42 23.19 256.4 24.7 262.6 15.23 260.62 15.23"/><polygon class="cls-6" points="258.87 28.52 259.84 30.02 261.95 26.8 260.97 25.29 258.87 28.52"/><polygon class="cls-7" points="258.61 28.11 260.71 24.89 259.86 23.57 257.75 26.8 258.61 28.11"/><polygon class="cls-8" points="257.51 26.42 259.62 23.2 258.77 21.89 256.67 25.12 257.51 26.42"/><polygon class="cls-9" points="255.42 23.19 256.4 24.7 258.5 21.47 257.52 19.96 256.38 21.7 255.42 23.19"/><polygon class="cls-1" points="250.3 15.27 241.09 15.27 250.78 30.26 240.68 45.74 249.68 45.74 255.25 37.16 260.79 45.74 270 45.74 259.86 30.06 255.41 23.17 250.3 15.27"/><rect class="cls-1" x="167.08" y="23.46" width="7.28" height="21.67"/><rect class="cls-1" x="167.16" y="15.04" width="7.11" height="5.68"/><path class="cls-1" d="M179.41,23.68h7.3v2.85a7.65,7.65,0,0,1,6.19-3.31,6.37,6.37,0,0,1,6,3.38,8.76,8.76,0,0,1,7-3.38c4.42,0,7.11,2.77,7.11,7.61V45.36h-7.3V33.17c0-2.26-1.11-3.45-2.84-3.45s-3,1.19-3,3.45V45.36h-7.3V33.17c0-2.26-1.11-3.45-2.84-3.45s-3,1.19-3,3.45V45.36h-7.3Z"/><polygon class="cls-1" points="163.05 45.12 155.63 34.11 162.89 23.46 154.85 23.46 151.63 28.19 148.45 23.46 140.24 23.46 147.53 34.23 140.12 45.12 148.13 45.12 151.52 40.14 154.89 45.12 163.05 45.12"/><path class="cls-10" d="M181.31,51.19v2.2h-9.57V60h7.75v2.11h-7.75v6.81h9.57v2.2H169V51.19Z"/><path class="cls-10" d="M187.85,63.9,183.11,57h2.38a.82.82,0,0,1,.44.1.86.86,0,0,1,.25.28l3.45,5.28a4.81,4.81,0,0,1,.36-.77l3-4.46a1.42,1.42,0,0,1,.28-.31.49.49,0,0,1,.34-.12h2.28l-4.74,6.74,4.94,7.36h-2.38a.73.73,0,0,1-.48-.16,1.64,1.64,0,0,1-.29-.36l-3.54-5.52a2.58,2.58,0,0,1-.29.72l-3.29,4.8a2.6,2.6,0,0,1-.3.36.61.61,0,0,1-.44.16h-2.21Z"/><path class="cls-10" d="M198.33,75.9V57h1.47a.63.63,0,0,1,.67.52l.21,1.67a7.33,7.33,0,0,1,2.06-1.77,5.25,5.25,0,0,1,2.68-.67,5.1,5.1,0,0,1,2.2.47,4.46,4.46,0,0,1,1.68,1.38,6.41,6.41,0,0,1,1.07,2.26,11.2,11.2,0,0,1,.38,3.1,9.68,9.68,0,0,1-.42,2.9,6.88,6.88,0,0,1-1.19,2.32,5.58,5.58,0,0,1-1.92,1.55,5.69,5.69,0,0,1-2.55.56,5.22,5.22,0,0,1-2.23-.43,5.13,5.13,0,0,1-1.64-1.23V75.9Zm6.27-17.11a4,4,0,0,0-2.12.55,6.17,6.17,0,0,0-1.68,1.57v6.82A4.06,4.06,0,0,0,202.3,69a4.28,4.28,0,0,0,1.81.38,3.56,3.56,0,0,0,3-1.4,6.55,6.55,0,0,0,1.06-4,10.18,10.18,0,0,0-.24-2.37,4.66,4.66,0,0,0-.71-1.62,2.68,2.68,0,0,0-1.12-.92A3.68,3.68,0,0,0,204.6,58.79Z"/><path class="cls-10" d="M216.19,50.63v20.5h-2.48V50.63Z"/><path class="cls-10" d="M226,56.81a7.3,7.3,0,0,1,2.79.51,5.77,5.77,0,0,1,2.11,1.47,6.46,6.46,0,0,1,1.34,2.28,9.84,9.84,0,0,1,0,6,6.46,6.46,0,0,1-1.34,2.28,5.73,5.73,0,0,1-2.11,1.45,7.89,7.89,0,0,1-5.58,0,5.85,5.85,0,0,1-2.12-1.45,6.63,6.63,0,0,1-1.35-2.28,9.84,9.84,0,0,1,0-6,6.63,6.63,0,0,1,1.35-2.28,5.9,5.9,0,0,1,2.12-1.47A7.3,7.3,0,0,1,226,56.81Zm0,12.58a3.64,3.64,0,0,0,3.12-1.4,6.5,6.5,0,0,0,1-3.9,6.6,6.6,0,0,0-1-3.93,3.64,3.64,0,0,0-3.12-1.4,4.38,4.38,0,0,0-1.84.36,3.55,3.55,0,0,0-1.3,1,4.82,4.82,0,0,0-.77,1.68,9.82,9.82,0,0,0,0,4.49,4.72,4.72,0,0,0,.77,1.66,3.52,3.52,0,0,0,1.3,1A4.23,4.23,0,0,0,226,69.39Z"/><path class="cls-10" d="M235.53,71.13V57H237a.74.74,0,0,1,.55.16.94.94,0,0,1,.21.52l.17,2.2a6.42,6.42,0,0,1,1.79-2.3,3.93,3.93,0,0,1,2.49-.83,4.33,4.33,0,0,1,1.06.13,4.08,4.08,0,0,1,.88.37l-.32,1.85a.43.43,0,0,1-.43.35,2.09,2.09,0,0,1-.6-.13,3.76,3.76,0,0,0-1.13-.13,3.19,3.19,0,0,0-2.16.75A5.66,5.66,0,0,0,238,62.15v9Z"/><path class="cls-10" d="M252.07,56.81a6.4,6.4,0,0,1,2.34.42,5.31,5.31,0,0,1,1.85,1.23,5.51,5.51,0,0,1,1.21,2,7.5,7.5,0,0,1,.44,2.68,1.68,1.68,0,0,1-.12.78.55.55,0,0,1-.48.2h-9.37a7.58,7.58,0,0,0,.36,2.32,4.69,4.69,0,0,0,.92,1.65,3.7,3.7,0,0,0,1.39,1,4.94,4.94,0,0,0,1.81.32,5.4,5.4,0,0,0,1.6-.21,7.73,7.73,0,0,0,1.16-.47,7.92,7.92,0,0,0,.82-.47,1.09,1.09,0,0,1,.56-.21.53.53,0,0,1,.47.24l.7.9a4.91,4.91,0,0,1-1.1,1,6.69,6.69,0,0,1-1.37.67,8.61,8.61,0,0,1-1.51.4,9,9,0,0,1-1.54.13,7.31,7.31,0,0,1-2.69-.49,5.85,5.85,0,0,1-2.13-1.45A6.58,6.58,0,0,1,246,67a9.45,9.45,0,0,1-.5-3.23,8.22,8.22,0,0,1,.45-2.75,6.64,6.64,0,0,1,1.3-2.22,5.92,5.92,0,0,1,2.07-1.47A6.8,6.8,0,0,1,252.07,56.81Zm.05,1.82a3.81,3.81,0,0,0-2.82,1A4.88,4.88,0,0,0,248,62.54h7.66a5,5,0,0,0-.23-1.58,3.51,3.51,0,0,0-.7-1.24,3.14,3.14,0,0,0-1.12-.8A3.77,3.77,0,0,0,252.12,58.63Z"/><path class="cls-10" d="M260.82,71.13V57h1.42a.72.72,0,0,1,.55.16.81.81,0,0,1,.21.52l.17,2.2a6.42,6.42,0,0,1,1.79-2.3,4,4,0,0,1,2.49-.83,4.27,4.27,0,0,1,1.06.13,4.08,4.08,0,0,1,.88.37l-.32,1.85a.43.43,0,0,1-.43.35,2.09,2.09,0,0,1-.6-.13,3.76,3.76,0,0,0-1.13-.13,3.19,3.19,0,0,0-2.16.75,5.66,5.66,0,0,0-1.46,2.18v9Z"/><path class="cls-11" d="M39.05,7.47c8.41-2.4,12-1.78,18.54-1.1A65.7,65.7,0,0,0,29.62,0c-1.44,0-2.88.05-4.31.15a25.84,25.84,0,0,1,5.81,4.36c1,1,3.05,3.41,4.46,3.66a9.33,9.33,0,0,0,3.47-.7"/><path class="cls-12" d="M49.48,41.87c-.73-3.24-1.69-6.46-2.69-9.55-.53-1.61-1.1-3.21-1.66-4.81S44,24.4,43.34,22.86c-2.81-6.58-2.52-6.61,2.61-9.57,3.49-1.78,9-4.29,12.89-4.09l.41,0a59.77,59.77,0,0,1-9.77,32.65"/><path class="cls-13" d="M6.29,35.81c3.33-2.62,7.06-5.13,9.78-6.84a114.94,114.94,0,0,1,11.19-6.09,13.46,13.46,0,0,1,3.93-1.45,2.7,2.7,0,0,1,1.22.13c1.23.52,3.29,3.85,3.29,3.85l0,0c.36.54.7,1.1,1.08,1.63s.79,1.19,1.15,1.78c.54.89,1.08,1.78,1.61,2.68.85,1.44,1.78,3,2.55,4.45,1.28,2.48,3.07,6,4.6,9.76a59.69,59.69,0,0,1-16.25,14.5l-.85.51-.85-.51A59.76,59.76,0,0,1,6.29,35.81"/><path class="cls-14" d="M19.13.88c.31.34.6.67.86,1,.59.7,1.16,1.45,1.71,2.18a24.65,24.65,0,0,1,1.86,2.6c.78,1.42,2.44,3.56,2.93,4.87a2.67,2.67,0,0,1,.19,1.28,1.74,1.74,0,0,1-.62.89c-.63.52-.95.69-1.49,1.08-2.4,1.76-4.68,3.63-7,5.47C15,22.3,12.39,24.73,10,27c-1.64,1.6-3.5,3.51-5.22,5.53A59.63,59.63,0,0,1,0,8.17v-1l.91-.44A67,67,0,0,1,19.13.88"/></svg>