<svg id="Layer_1" data-name="Layer 1" xmlns="http://www.w3.org/2000/svg" viewBox="0 0 453.54 113.39"><defs><style>.cls-1{fill:#fff;}.cls-10,.cls-2{fill:#ef6724;}.cls-13,.cls-3{fill:#f2a91f;}.cls-12,.cls-4{fill:#1eb3ab;}.cls-11,.cls-5{fill:#7bb5e3;}.cls-6{fill:#ce5028;}.cls-7{fill:#c5862b;}.cls-8{fill:#00a091;}.cls-9{fill:#488fbf;}.cls-10,.cls-11,.cls-12,.cls-13{fill-rule:evenodd;}</style></defs><title>Artboard 1 copy 4</title><path class="cls-1" d="M120.44,25.58h21.28c10,0,16.7,7.31,16.7,17.63S151.68,61,141.72,61H133V76.83H120.44Zm18.7,24.66c4.37,0,6.52-2.94,6.52-7s-2.15-6.88-6.3-6.88H133V50.24Z"/><path class="cls-1" d="M164.07,39.4H175.8v8.41c1.56-4.94,6.15-9,11.6-9a8.86,8.86,0,0,1,1.41.14v12a11.56,11.56,0,0,0-2.47-.21c-6.79,0-10,4.31-10,11V75.81H164.07Z"/><path class="cls-1" d="M213.6,38.55c11.52,0,20.72,7.71,20.72,19.16s-9.2,18.94-20.64,18.94S193,69.09,193,57.71s9.19-19.16,20.57-19.16m.08,27.92c4.45,0,8.27-3.31,8.27-8.76s-3.82-9-8.27-9-8.28,3.47-8.28,9,3.82,8.76,8.28,8.76"/><path class="cls-1" d="M383.93,53.12H385v-.64c0-3-2.47-4-5.16-4a19.07,19.07,0,0,0-10,3.46l-4.24-8.62c3.11-2.41,9.47-4.74,15.41-4.74,10,0,16.26,5.59,16.26,14.85V75.81H386.05V71.35a13.35,13.35,0,0,1-10.81,5.3c-7,0-11.88-4.8-11.88-11.09,0-9.76,11.59-12.44,20.57-12.44m-5,14.42c3.54,0,6.22-3.47,6.22-6.44v-1H384c-3.74,0-8.55,1-8.55,4.32,0,1.69,1.2,3.11,3.46,3.11"/><polygon class="cls-2" points="452.73 25.58 449.45 25.58 434.84 47.9 436.48 50.43 451.54 27.41 452.73 25.58"/><polygon class="cls-3" points="445.69 25.58 432.97 45.01 434.4 47.23 448.57 25.58 445.69 25.58"/><polygon class="cls-4" points="442.02 25.58 431.15 42.19 432.57 44.39 444.87 25.58 442.02 25.58"/><polygon class="cls-5" points="437.79 25.58 432.35 33.9 429.05 38.95 430.69 41.49 441.1 25.58 437.79 25.58"/><polygon class="cls-6" points="434.84 47.9 436.48 50.43 440.01 45.01 438.38 42.49 434.84 47.9"/><polygon class="cls-7" points="434.4 47.23 437.94 41.81 436.51 39.6 432.97 45.01 434.4 47.23"/><polygon class="cls-8" points="432.57 44.39 436.11 38.97 434.69 36.77 431.15 42.19 432.57 44.39"/><polygon class="cls-9" points="429.05 38.95 430.69 41.49 434.23 36.07 432.58 33.52 430.67 36.45 429.05 38.95"/><polygon class="cls-1" points="420.45 25.65 404.99 25.65 421.26 50.83 404.29 76.83 419.42 76.83 428.76 62.43 438.07 76.83 453.54 76.83 436.52 50.49 429.04 38.92 420.45 25.65"/><rect class="cls-1" x="280.65" y="39.4" width="12.23" height="36.4"/><rect class="cls-1" x="280.79" y="25.26" width="11.95" height="9.54"/><path class="cls-1" d="M301.37,39.78h12.27v4.78C315.89,41.66,319.12,39,324,39c4.64,0,8.19,2.07,10.06,5.68,3-3.49,6.59-5.68,11.68-5.68,7.43,0,11.94,4.65,11.94,12.78v24.4H345.45V55.72c0-3.8-1.87-5.8-4.77-5.8s-5,2-5,5.8V76.19H323.38V55.72c0-3.8-1.87-5.8-4.78-5.8s-5,2-5,5.8V76.19H301.37Z"/><polygon class="cls-1" points="273.9 75.79 261.43 57.3 273.63 39.42 260.11 39.42 254.71 47.35 249.36 39.42 235.57 39.42 247.81 57.5 235.37 75.79 248.82 75.79 254.52 67.42 260.18 75.79 273.9 75.79"/><path class="cls-10" d="M65.59,12.54c14.13-4,20.13-3,31.16-1.83A110.3,110.3,0,0,0,49.76,0c-2.42,0-4.84.09-7.24.25a43.84,43.84,0,0,1,9.76,7.33c1.68,1.71,5.12,5.73,7.48,6.14,1.8.31,4.46-.78,5.83-1.18"/><path class="cls-11" d="M83.12,70.33c-1.23-5.44-2.85-10.84-4.53-16-.88-2.71-1.84-5.39-2.78-8.08s-2-5.22-3-7.8c-4.72-11.06-4.23-11.11,4.39-16.09,5.86-3,15.06-7.2,21.65-6.87l.68.05a100.32,100.32,0,0,1-16.4,54.83"/><path class="cls-12" d="M10.56,60.16c5.6-4.41,11.87-8.62,16.43-11.5a194.4,194.4,0,0,1,18.8-10.23c2-1,4.67-2.29,6.6-2.43a4.46,4.46,0,0,1,2,.22c2.07.87,5.53,6.46,5.53,6.46l0,.06c.62.9,1.18,1.85,1.83,2.73s1.32,2,1.92,3c.92,1.49,1.81,3,2.7,4.5,1.44,2.43,3,5,4.3,7.48,2.14,4.16,5.15,10.07,7.73,16.39a100.31,100.31,0,0,1-27.3,24.35l-1.43.87-1.43-.87a100.23,100.23,0,0,1-37.77-41"/><path class="cls-13" d="M32.13,1.48c.52.56,1,1.12,1.45,1.66,1,1.18,2,2.43,2.88,3.67a41.16,41.16,0,0,1,3.11,4.36c1.32,2.38,4.1,6,4.93,8.18a4.48,4.48,0,0,1,.32,2.15,3,3,0,0,1-1,1.49c-1.07.88-1.6,1.16-2.51,1.83-4,2.94-7.86,6.08-11.76,9.18-4.36,3.46-8.7,7.54-12.7,11.43C14.06,48.1,10.94,51.31,8,54.71a100.13,100.13,0,0,1-8-41L0,12l1.52-.73A112.67,112.67,0,0,1,32.13,1.48"/><path class="cls-1" d="M119.61,99.75h5.73V100a3.17,3.17,0,0,0,1.67,2.88,9.58,9.58,0,0,0,4.84,1,8.24,8.24,0,0,0,3.79-.71,2.23,2.23,0,0,0,1.33-2,1.77,1.77,0,0,0-.87-1.63,9.71,9.71,0,0,0-3.52-.79l-4-.4a13.09,13.09,0,0,1-6.41-2,5.06,5.06,0,0,1-2-4.31,6.31,6.31,0,0,1,3-5.38,13.39,13.39,0,0,1,7.83-2.07q5.23,0,8.2,2a6.1,6.1,0,0,1,3,5.35V92h-5.57A3.27,3.27,0,0,0,135,89.48a7.66,7.66,0,0,0-3.93-.83,8.09,8.09,0,0,0-3.66.68,2.06,2.06,0,0,0-1.3,1.9,1.54,1.54,0,0,0,.76,1.43,11.58,11.58,0,0,0,3.76.79l4.16.44q4.31.47,6.32,2.07a5.39,5.39,0,0,1,2,4.5,6.33,6.33,0,0,1-3,5.68q-3,2-8.88,2c-3.71,0-6.57-.68-8.56-2a6.62,6.62,0,0,1-3-5.82Z"/><path class="cls-1" d="M152.26,89.12h-5.15v-4h5.15Zm-5.15,18.38V90.79h5.15V107.5Z"/><path class="cls-1" d="M162,107.5h-5.18V90.79H162V93a8.59,8.59,0,0,1,2.43-2.11,5.36,5.36,0,0,1,2.63-.69c.18,0,.53,0,1,.09l.41,0v4.4l-.59,0-1,0a4.63,4.63,0,0,0-3.57,1.42A5.67,5.67,0,0,0,162,100Z"/><path class="cls-1" d="M176.07,89.12h-5.15v-4h5.15Zm-5.15,18.38V90.79h5.15V107.5Z"/><path class="cls-1" d="M199.44,90.79V107.5h-5.18V105a9,9,0,0,1-3,2.2,8.57,8.57,0,0,1-3.55.73,9.33,9.33,0,0,1-3.7-.68,5.46,5.46,0,0,1-2.43-2,5.33,5.33,0,0,1-.77-1.89,18.2,18.2,0,0,1-.23-3.39v-9.2h5.18v8.09a6.53,6.53,0,0,0,.81,3.83,3.39,3.39,0,0,0,2.83,1,4.84,4.84,0,0,0,3.54-1.25A4.6,4.6,0,0,0,194.26,99V90.79Z"/><path class="cls-1" d="M203,102h5.47a2.12,2.12,0,0,0,1.21,1.81,8,8,0,0,0,3.46.56,6.29,6.29,0,0,0,2.6-.45c.65-.3,1-.7,1-1.18a1,1,0,0,0-.56-.94,7.23,7.23,0,0,0-2.33-.42l-4.68-.41a6.73,6.73,0,0,1-4.1-1.61,4.56,4.56,0,0,1-1.52-3.51,4.68,4.68,0,0,1,2.34-4.21,16,16,0,0,1,13.33,0,4.49,4.49,0,0,1,2.38,4v.15h-5.18a2.2,2.2,0,0,0-1.18-1.64,6.2,6.2,0,0,0-2.88-.54,6,6,0,0,0-2.46.41,1.25,1.25,0,0,0-.88,1.12c0,.46.29.8.87,1.05a11.47,11.47,0,0,0,3,.53l3.62.28a6.77,6.77,0,0,1,4.14,1.49,4.47,4.47,0,0,1,1.44,3.49,5.1,5.1,0,0,1-2.38,4.56q-2.38,1.56-7,1.56c-3.09,0-5.46-.51-7.09-1.53A5.39,5.39,0,0,1,203,102Z"/><path class="cls-1" d="M237.37,107.5V85.11h14.47a9.48,9.48,0,0,1,5.66,1.4,4.89,4.89,0,0,1,1.88,4.19,5.39,5.39,0,0,1-.77,2.88,5.61,5.61,0,0,1-2.27,2,5.48,5.48,0,0,1,2.92,2,6.67,6.67,0,0,1-.95,8.17A7.81,7.81,0,0,1,253,107.5Zm12.25-18H243v4.62h6.63a6.4,6.4,0,0,0,3.07-.51,2.26,2.26,0,0,0-.07-3.56A6.13,6.13,0,0,0,249.62,89.45ZM243,103h7.46a6.13,6.13,0,0,0,3.09-.54,2.15,2.15,0,0,0,.82-1.91,2.21,2.21,0,0,0-.91-2,5.67,5.67,0,0,0-3-.6H243Z"/><path class="cls-1" d="M289,98.82a9.17,9.17,0,0,1-4,6.74,14.89,14.89,0,0,1-8.94,2.53c-4.09,0-7.34-1.07-9.78-3.2a11.93,11.93,0,0,1,0-17.16c2.44-2.14,5.69-3.21,9.78-3.21A15.25,15.25,0,0,1,285,86.93a8.62,8.62,0,0,1,3.95,6.34h-6.12a5,5,0,0,0-2.25-3.1,8.29,8.29,0,0,0-4.44-1,7.2,7.2,0,0,0-5.3,1.92,8.09,8.09,0,0,0,0,10.52,7.24,7.24,0,0,0,5.31,1.91,8.17,8.17,0,0,0,4.7-1.22,4.66,4.66,0,0,0,2.05-3.43Z"/><path class="cls-1" d="M304.09,107.5V85.11H324v4.53H309.71v3.78h12.7V98h-12.7v4.81H324v4.71Z"/><path class="cls-1" d="M324.3,107.5,331.67,99l-6.57-8.19h6.48l3.26,4.46,3.4-4.46H345l-7.1,8.34,7.58,8.37h-6.87l-3.81-4.68-3.67,4.68Z"/><path class="cls-1" d="M346.83,113.39V90.79H352v1.68a6.55,6.55,0,0,1,2.51-1.6,10.18,10.18,0,0,1,3.43-.52,9.59,9.59,0,0,1,6.81,2.44,9,9,0,0,1,0,12.71,9.83,9.83,0,0,1-6.92,2.44,9.38,9.38,0,0,1-3.31-.54,7.09,7.09,0,0,1-2.52-1.64v7.63ZM352,99.16a4.61,4.61,0,0,0,1.33,3.45,5.63,5.63,0,0,0,7.16,0,4.65,4.65,0,0,0,1.32-3.49,4.55,4.55,0,0,0-1.33-3.46,5,5,0,0,0-3.57-1.28,4.88,4.88,0,0,0-3.57,1.3A4.63,4.63,0,0,0,352,99.16Z"/><path class="cls-1" d="M370.83,107.5V85.11H376V107.5Z"/><path class="cls-1" d="M379.43,99.13a8.11,8.11,0,0,1,2.82-6.54c1.89-1.6,4.47-2.39,7.75-2.39s5.84.79,7.72,2.39a9,9,0,0,1,0,13.09,13.57,13.57,0,0,1-15.44,0A8.14,8.14,0,0,1,379.43,99.13Zm5.6,0a4.65,4.65,0,0,0,1.36,3.52A4.94,4.94,0,0,0,390,104a4.88,4.88,0,0,0,3.58-1.32,4.76,4.76,0,0,0,1.35-3.55,4.69,4.69,0,0,0-1.34-3.52A4.88,4.88,0,0,0,390,94.3a4.94,4.94,0,0,0-3.61,1.32A4.71,4.71,0,0,0,385,99.16Z"/><path class="cls-1" d="M408.81,107.5h-5.18V90.79h5.18V93a8.59,8.59,0,0,1,2.43-2.11,5.36,5.36,0,0,1,2.63-.69c.18,0,.53,0,1,.09l.41,0v4.4l-.59,0-1.05,0a4.63,4.63,0,0,0-3.57,1.42,5.62,5.62,0,0,0-1.3,3.94Z"/><path class="cls-1" d="M436.09,102.08a8.35,8.35,0,0,1-3.58,4.44,11.5,11.5,0,0,1-6.19,1.57,10.61,10.61,0,0,1-7.33-2.42,9.27,9.27,0,0,1,0-13.07,10.66,10.66,0,0,1,7.34-2.4q4.83,0,7.44,2.49t2.61,7.09v.71H422.11a4,4,0,0,0,1.19,2.91,4.22,4.22,0,0,0,3,1.09,4.85,4.85,0,0,0,2.53-.63,3.55,3.55,0,0,0,1.53-1.78ZM422.27,97h8.35a3.38,3.38,0,0,0-1.25-2.45,4.59,4.59,0,0,0-2.93-.89,4.51,4.51,0,0,0-2.91.9A3.35,3.35,0,0,0,422.27,97Z"/><path class="cls-1" d="M444.67,107.5h-5.18V90.79h5.18V93a8.59,8.59,0,0,1,2.43-2.11,5.35,5.35,0,0,1,2.62-.69c.19,0,.53,0,1,.09l.41,0v4.4l-.59,0-1,0A4.63,4.63,0,0,0,446,96.08a5.62,5.62,0,0,0-1.3,3.94Z"/></svg>