<?xml version="1.0" encoding="UTF-8" standalone="no"?>
<svg
   xmlns:dc="http://purl.org/dc/elements/1.1/"
   xmlns:cc="http://creativecommons.org/ns#"
   xmlns:rdf="http://www.w3.org/1999/02/22-rdf-syntax-ns#"
   xmlns:svg="http://www.w3.org/2000/svg"
   xmlns="http://www.w3.org/2000/svg"
   xmlns:sodipodi="http://sodipodi.sourceforge.net/DTD/sodipodi-0.dtd"
   xmlns:inkscape="http://www.inkscape.org/namespaces/inkscape"
   id="Capa_1"
   data-name="Capa 1"
   viewBox="0 0 40.98 56.58"
   version="1.1"
   sodipodi:docname="map-pointer.svg"
   inkscape:version="0.92.4 (unknown)">
  <metadata
     id="metadata21">
    <rdf:RDF>
      <cc:Work
         rdf:about="">
        <dc:format>image/svg+xml</dc:format>
        <dc:type
           rdf:resource="http://purl.org/dc/dcmitype/StillImage" />
        <dc:title>map-pointer-green</dc:title>
      </cc:Work>
    </rdf:RDF>
  </metadata>
  <sodipodi:namedview
     pagecolor="#ffffff"
     bordercolor="#666666"
     borderopacity="1"
     objecttolerance="10"
     gridtolerance="10"
     guidetolerance="10"
     inkscape:pageopacity="0"
     inkscape:pageshadow="2"
     inkscape:window-width="1366"
     inkscape:window-height="705"
     id="namedview19"
     showgrid="false"
     inkscape:zoom="4.1710851"
     inkscape:cx="20.49"
     inkscape:cy="28.290001"
     inkscape:window-x="0"
     inkscape:window-y="30"
     inkscape:window-maximized="1"
     inkscape:current-layer="Capa_1" />
  <defs
     id="defs4">
    <style
       id="style2">.cls-1{fill:#1bb2a9;}.cls-2{fill:#fff;}</style>
  </defs>
  <title
     id="title6">map-pointer-green</title>
  <g
     id="g4539">
    <path
       style="fill:#2ba1b9;fill-opacity:1"
       id="path8"
       d="M20.49,0A20.51,20.51,0,0,0,0,20.49C0,34.51,18.34,55.1,19.12,56a1.83,1.83,0,0,0,2.74,0C22.64,55.1,41,34.51,41,20.49A20.51,20.51,0,0,0,20.49,0Z"
       class="cls-1" />
    <path
       id="path10"
       d="M20.46,10.51a24.67,24.67,0,0,1,10.48,2.38,14.7,14.7,0,0,0-7,.41,3.35,3.35,0,0,1-1.3.26c-.52-.09-1.29-1-1.67-1.36a9.6,9.6,0,0,0-2.17-1.64C19.38,10.52,19.92,10.51,20.46,10.51Z"
       class="cls-2" />
    <path
       id="path12"
       d="M9.37,13.56v-.37L9.72,13a25.32,25.32,0,0,1,6.81-2.19l.33.37c.22.27.43.55.64.82a9.15,9.15,0,0,1,.69,1,18.38,18.38,0,0,1,1.1,1.82.93.93,0,0,1,.07.48.66.66,0,0,1-.23.33c-.24.2-.36.26-.56.41-.9.65-1.75,1.35-2.62,2S14,19.77,13.12,20.63c-.62.6-1.31,1.31-2,2.07A22.42,22.42,0,0,1,9.37,13.56Z"
       class="cls-2" />
    <path
       id="path14"
       d="M20.78,33.06l-.32.19-.31-.19a22.29,22.29,0,0,1-8.42-9.14,41.52,41.52,0,0,1,3.66-2.57,44.24,44.24,0,0,1,4.19-2.28,5,5,0,0,1,1.47-.54,1.08,1.08,0,0,1,.46,0C22,18.77,22.74,20,22.74,20h0c.14.2.26.41.41.61s.29.45.43.67l.6,1c.32.54.67,1.11.95,1.67.48.93,1.15,2.24,1.73,3.65A22.34,22.34,0,0,1,20.78,33.06Z"
       class="cls-2" />
    <path
       id="path16"
       d="M27.9,26.18c-.27-1.21-.64-2.41-1-3.57-.2-.61-.41-1.2-.62-1.8s-.43-1.17-.67-1.74c-1.05-2.47-.94-2.48,1-3.59,1.3-.66,3.35-1.6,4.82-1.53h.16A22.42,22.42,0,0,1,27.9,26.18Z"
       class="cls-2" />
  </g>
</svg>
