<svg id="Capa_1" data-name="Capa 1" xmlns="http://www.w3.org/2000/svg" viewBox="0 0 14.49 20"><defs><style>.cls-1{fill:#1bb2a9;}.cls-2{fill:#fff;}</style></defs><title>map-pointer-green-15x20</title><path class="cls-1" d="M7.24,0A7.25,7.25,0,0,0,0,7.24c0,5,6.48,12.24,6.76,12.54a.65.65,0,0,0,1,0c.27-.3,6.76-7.58,6.76-12.54A7.25,7.25,0,0,0,7.24,0Z"/><path class="cls-2" d="M7.23,3.71a8.65,8.65,0,0,1,3.71.85,5.29,5.29,0,0,0-2.46.14A1.14,1.14,0,0,1,8,4.79c-.18,0-.46-.34-.59-.48a3.46,3.46,0,0,0-.77-.58Z"/><path class="cls-2" d="M3.31,4.79V4.66l.12-.06a8.85,8.85,0,0,1,2.4-.77A1.42,1.42,0,0,1,6,4c.08.09.15.19.23.29a4.15,4.15,0,0,1,.24.34c.1.19.32.48.39.65a.32.32,0,0,1,0,.17.21.21,0,0,1-.08.12l-.2.14c-.31.23-.61.48-.92.72s-.69.6-1,.9A9.79,9.79,0,0,0,4,8,7.83,7.83,0,0,1,3.31,4.79Z"/><path class="cls-2" d="M7.35,11.69l-.12.07-.11-.07a7.85,7.85,0,0,1-3-3.24c.44-.34.93-.67,1.29-.9a15.62,15.62,0,0,1,1.48-.81,1.94,1.94,0,0,1,.52-.19.39.39,0,0,1,.16,0c.17.07.44.51.44.51H8c.05.07.09.15.15.22l.15.23.21.36c.11.19.24.39.34.59s.4.79.61,1.29A8.08,8.08,0,0,1,7.35,11.69Z"/><path class="cls-2" d="M9.86,9.26C9.77,8.83,9.64,8.4,9.51,8l-.22-.63-.24-.62c-.37-.87-.33-.88.35-1.27a4.18,4.18,0,0,1,1.7-.54h.06A8,8,0,0,1,9.86,9.26Z"/></svg>