<?xml version="1.0" encoding="UTF-8" standalone="no"?>
<svg
   xmlns:dc="http://purl.org/dc/elements/1.1/"
   xmlns:cc="http://creativecommons.org/ns#"
   xmlns:rdf="http://www.w3.org/1999/02/22-rdf-syntax-ns#"
   xmlns:svg="http://www.w3.org/2000/svg"
   xmlns="http://www.w3.org/2000/svg"
   xmlns:sodipodi="http://sodipodi.sourceforge.net/DTD/sodipodi-0.dtd"
   xmlns:inkscape="http://www.inkscape.org/namespaces/inkscape"
   id="Capa_1"
   data-name="Capa 1"
   viewBox="0 0 20.49 25"
   version="1.1"
   sodipodi:docname="map-pointer-green-15x20.svg"
   width="20.49"
   height="25">
  <metadata
     id="metadata21">
    <rdf:RDF>
      <cc:Work
         rdf:about="">
        <dc:format>image/svg+xml</dc:format>
        <dc:type
           rdf:resource="http://purl.org/dc/dcmitype/StillImage" />
        <dc:title>map-pointer-green-15x20</dc:title>
      </cc:Work>
    </rdf:RDF>
  </metadata>
  <sodipodi:namedview
     pagecolor="#ffffff"
     bordercolor="#666666"
     borderopacity="1"
     objecttolerance="10"
     gridtolerance="10"
     guidetolerance="10"
     inkscape:pageopacity="0"
     inkscape:pageshadow="2"
     inkscape:window-width="640"
     inkscape:window-height="480"
     id="namedview19"
     showgrid="false" />
  <defs
     id="defs4">
    <style
       id="style2">.cls-1{fill:#1bb2a9;}.cls-2{fill:#fff;}</style>
  </defs>
  <title
     id="title6">map-pointer-green-15x20</title>
  <path
     class="cls-1"
     d="M 7.24,5 A 7.25,7.25 0 0 0 0,12.24 c 0,5 6.48,12.24 6.76,12.54 a 0.65,0.65 0 0 0 1,0 c 0.27,-0.3 6.76,-7.58 6.76,-12.54 A 7.25,7.25 0 0 0 7.24,5 Z"
     id="path8"
     inkscape:connector-curvature="0"
     style="fill:#1bb2a9" />
  <path
     class="cls-2"
     d="M 7.23,8.71 A 8.65,8.65 0 0 1 10.94,9.56 5.29,5.29 0 0 0 8.48,9.7 1.14,1.14 0 0 1 8,9.79 C 7.82,9.79 7.54,9.45 7.41,9.31 A 3.46,3.46 0 0 0 6.64,8.73 Z"
     id="path10"
     inkscape:connector-curvature="0"
     style="fill:#ffffff" />
  <path
     class="cls-2"
     d="M 3.31,9.79 V 9.66 L 3.43,9.6 A 8.85,8.85 0 0 1 5.83,8.83 1.42,1.42 0 0 1 6,9 c 0.08,0.09 0.15,0.19 0.23,0.29 a 4.15,4.15 0 0 1 0.24,0.34 c 0.1,0.19 0.32,0.48 0.39,0.65 a 0.32,0.32 0 0 1 0,0.17 0.21,0.21 0 0 1 -0.08,0.12 l -0.2,0.14 c -0.31,0.23 -0.61,0.48 -0.92,0.72 -0.31,0.24 -0.69,0.6 -1,0.9 A 9.79,9.79 0 0 0 4,13 7.83,7.83 0 0 1 3.31,9.79 Z"
     id="path12"
     inkscape:connector-curvature="0"
     style="fill:#ffffff" />
  <path
     class="cls-2"
     d="M 7.35,16.69 7.23,16.76 7.12,16.69 a 7.85,7.85 0 0 1 -3,-3.24 c 0.44,-0.34 0.93,-0.67 1.29,-0.9 a 15.62,15.62 0 0 1 1.48,-0.81 1.94,1.94 0 0 1 0.52,-0.19 0.39,0.39 0 0 1 0.16,0 c 0.17,0.07 0.44,0.51 0.44,0.51 H 8 c 0.05,0.07 0.09,0.15 0.15,0.22 l 0.15,0.23 0.21,0.36 c 0.11,0.19 0.24,0.39 0.34,0.59 0.1,0.2 0.4,0.79 0.61,1.29 a 8.08,8.08 0 0 1 -2.11,1.94 z"
     id="path14"
     inkscape:connector-curvature="0"
     style="fill:#ffffff" />
  <path
     class="cls-2"
     d="M 9.86,14.26 C 9.77,13.83 9.64,13.4 9.51,13 L 9.29,12.37 9.05,11.75 C 8.68,10.88 8.72,10.87 9.4,10.48 a 4.18,4.18 0 0 1 1.7,-0.54 h 0.06 a 8,8 0 0 1 -1.3,4.32 z"
     id="path16"
     inkscape:connector-curvature="0"
     style="fill:#ffffff" />
</svg>
