<svg id="Capa_1" data-name="Capa 1" xmlns="http://www.w3.org/2000/svg" viewBox="0 0 28 28"><defs><style>.cls-1{fill:#fff;}</style></defs><title>search-details-white</title><path class="cls-1" d="M27.23,23.52,20.81,17.1a12.53,12.53,0,0,1-3.72,3.71l6.43,6.42a2.62,2.62,0,0,0,3.71-3.71Z"/><path class="cls-1" d="M21,10.5A10.5,10.5,0,1,0,10.5,21,10.5,10.5,0,0,0,21,10.5ZM10.5,18.37a7.87,7.87,0,1,1,7.88-7.87A7.88,7.88,0,0,1,10.5,18.37Z"/><path class="cls-1" d="M4.38,10.5H6.12A4.38,4.38,0,0,1,10.5,6.13V4.38A6.12,6.12,0,0,0,4.38,10.5Z"/></svg>